<svg id="Component_42_10" data-name="Component 42 – 10" xmlns="http://www.w3.org/2000/svg" xmlns:xlink="http://www.w3.org/1999/xlink" width="64" height="64" viewBox="0 0 64 64">
  <defs>
    <linearGradient id="linear-gradient" x1="0.5" x2="0.5" y2="1" gradientUnits="objectBoundingBox">
      <stop offset="0" stop-color="#edb3bf"/>
      <stop offset="1" stop-color="#363636"/>
    </linearGradient>
    <filter id="Path_1205" x="7.535" y="13.069" width="48.817" height="34.02" filterUnits="userSpaceOnUse">
      <feOffset dy="3" input="SourceAlpha"/>
      <feGaussianBlur stdDeviation="3" result="blur"/>
      <feFlood flood-opacity="0.161"/>
      <feComposite operator="in" in2="blur"/>
      <feComposite in="SourceGraphic"/>
    </filter>
    <filter id="Path_1206" x="7.534" y="23.313" width="48.932" height="33.618" filterUnits="userSpaceOnUse">
      <feOffset dy="3" input="SourceAlpha"/>
      <feGaussianBlur stdDeviation="3" result="blur-2"/>
      <feFlood flood-opacity="0.161"/>
      <feComposite operator="in" in2="blur-2"/>
      <feComposite in="SourceGraphic"/>
    </filter>
  </defs>
  <rect id="Rectangle_1775" data-name="Rectangle 1775" width="64" height="64" rx="9" fill="url(#linear-gradient)"/>
  <g id="Rectangle_1614" data-name="Rectangle 1614" transform="translate(3.49 3.49)" fill="#fff" stroke="#edb3bf" stroke-width="2">
    <rect width="56.635" height="56.635" rx="7" stroke="none"/>
    <rect x="1" y="1" width="54.635" height="54.635" rx="6" fill="none"/>
  </g>
  <g id="Group_10724" data-name="Group 10724" transform="translate(-169.555 -558.459)">
    <g transform="matrix(1, 0, 0, 1, 169.55, 558.46)" filter="url(#Path_1205)">
      <path id="Path_1205-2" data-name="Path 1205" d="M189.884,587.772a17.86,17.86,0,0,1-3.738-8.466c-.193-1.283.07-1.788,1.521-1.778q13.848.093,27.7.005c1.429-.008,1.657.453,1.5,1.791a17.974,17.974,0,0,1-3.684,8.472,4.833,4.833,0,0,1-2.162,2.63,16.125,16.125,0,0,1-20.124-.844C190.354,589.1,189.789,588.616,189.884,587.772Z" transform="translate(-169.56 -558.46)" fill="#4d6d9a"/>
    </g>
    <g transform="matrix(1, 0, 0, 1, 169.55, 558.46)" filter="url(#Path_1206)">
      <path id="Path_1206-2" data-name="Path 1206" d="M189.883,600.93c6.02,6.315,15.809,7.494,23.3.024,4.315.142,4.43.315,3.076,4.649-2.121,6.794-8.9,11.515-15.632,10.888a15.738,15.738,0,0,1-14.5-13.709c-.158-1.305.137-1.947,1.575-1.8A16.4,16.4,0,0,0,189.883,600.93Z" transform="translate(-169.55 -571.62)" fill="#edb3bf"/>
    </g>
  </g>
</svg>
