<svg id="Component_42_9" data-name="Component 42 – 9" xmlns="http://www.w3.org/2000/svg" width="60" height="60" viewBox="0 0 60 60">
  <rect id="Rectangle_1613" data-name="Rectangle 1613" width="60" height="60" rx="7" fill="#edb3bf"/>
  <g id="Rectangle_1614" data-name="Rectangle 1614" transform="translate(1.49 1.49)" fill="#fff" stroke="#fff" stroke-width="2">
    <rect width="56.635" height="56.635" rx="7" stroke="none"/>
    <rect x="1" y="1" width="54.635" height="54.635" rx="6" fill="none"/>
  </g>
  <g id="Group_10723" data-name="Group 10723" transform="translate(-15.178 -554.172)">
    <path id="Path_1202" data-name="Path 1202" d="M63.539,599.718a2.885,2.885,0,0,1-1.951,2.495,3.087,3.087,0,0,1-3.518-.816q-4.014-4.008-8.03-8.015c-1.625-1.622-3.278-3.218-4.863-4.878-1.475-1.544-1.51-3.373-.182-4.664s3.093-1.228,4.657.32c4.272,4.227,8.506,8.493,12.757,12.742A3.467,3.467,0,0,1,63.539,599.718Z" transform="translate(-8.622 -8.548)" fill="#ee3d01"/>
    <path id="Path_1203" data-name="Path 1203" d="M48.994,614.281a2.89,2.89,0,0,1-1.9,2.516,3.038,3.038,0,0,1-3.516-.788c-2.029-1.981-4.02-4-6.026-6-2.245-2.242-4.505-4.47-6.729-6.733-1.615-1.643-1.733-3.471-.377-4.815,1.319-1.306,3.21-1.168,4.811.422,4.168,4.137,8.307,8.305,12.475,12.443A3.7,3.7,0,0,1,48.994,614.281Z" transform="translate(0 -17.243)" fill="#cd0205"/>
    <path id="Path_1204" data-name="Path 1204" d="M78.169,584.919a3.19,3.19,0,0,1-1.967,2.84,3.018,3.018,0,0,1-3.509-.822q-5.05-5-10.079-10.012c-1.007-1-2.033-1.989-2.976-3.049a3.144,3.144,0,0,1,.02-4.534,3.1,3.1,0,0,1,4.383.185c4.385,4.321,8.717,8.695,13.079,13.039A3.7,3.7,0,0,1,78.169,584.919Z" transform="translate(-17.319)" fill="#f9b42c"/>
  </g>
</svg>
