<svg id="Component_42_13" data-name="Component 42 – 13" xmlns="http://www.w3.org/2000/svg" width="60" height="60" viewBox="0 0 60 60">
  <rect id="Rectangle_1613" data-name="Rectangle 1613" width="60" height="60" rx="7" fill="#edb3bf"/>
  <g id="Rectangle_1614" data-name="Rectangle 1614" transform="translate(1.49 1.49)" fill="#fff" stroke="#fff" stroke-width="2">
    <rect width="56.635" height="56.635" rx="7" stroke="none"/>
    <rect x="1" y="1" width="54.635" height="54.635" rx="6" fill="none"/>
  </g>
  <g id="Group_10727" data-name="Group 10727" transform="translate(-328.136 -374.126)">
    <path id="Path_1209" data-name="Path 1209" d="M377.473,430.146l14.484-23.526c1.061,1.678,2.018,3.152,2.934,4.651a3.546,3.546,0,0,1-.24,3.808c-2.6,4.565-5.268,9.095-7.884,13.653a2.507,2.507,0,0,1-2.367,1.421C382.285,430.133,380.17,430.146,377.473,430.146Z" transform="translate(-17.937 -9.385)" fill="#01b5c7"/>
    <path id="Path_1210" data-name="Path 1210" d="M356.863,430.523c-2.738,0-4.858-.055-6.973.021a2.341,2.341,0,0,1-2.284-1.467q-4.1-7.176-8.247-14.321a2.148,2.148,0,0,1-.178-2.47c.924-1.483,1.77-3.015,2.847-4.867Z" transform="translate(0 -9.756)" fill="#01b5c7"/>
    <path id="Path_1211" data-name="Path 1211" d="M360.686,423.356q-6.667-10.393-13.33-20.79c-1.2-1.882.568-2.832,1.36-4.637,4.2,6.642,8.228,12.87,12.087,19.2C361.9,418.933,361.168,421.1,360.686,423.356Z" transform="translate(-3.757 -5.348)" fill="#02b5c8"/>
    <path id="Path_1212" data-name="Path 1212" d="M388.683,397.839c1.939,1.885,1.954,3.452.587,5.542-3.793,5.8-7.315,11.781-10.98,17.667-.447.718-.681,1.648-1.652,2.086a13.967,13.967,0,0,1,2.322-9.789C382.372,408.373,385.393,403.133,388.683,397.839Z" transform="translate(-17.505 -5.306)" fill="#02b5c8"/>
    <path id="Path_1213" data-name="Path 1213" d="M354.555,386.417c3.05,5.333,5.844,10.074,8.484,14.9,1.2,2.188.993,4.578.3,7.466-3.727-5.869-7.286-11.276-10.619-16.82C351.487,389.913,353.94,388.716,354.555,386.417Z" transform="translate(-6.279 0)" fill="#03b5c8"/>
    <path id="Path_1214" data-name="Path 1214" d="M385.3,387.292c2.452,2.447,2.359,4.548.5,7.2-3.154,4.5-5.869,9.3-9.079,13.936-.5-2.3-.928-4.7.2-6.788C379.544,396.8,382.454,392.12,385.3,387.292Z" transform="translate(-17.347 -0.406)" fill="#03b5c8"/>
  </g>
</svg>
