<svg xmlns="http://www.w3.org/2000/svg" xmlns:xlink="http://www.w3.org/1999/xlink" width="230.065" height="162.265" viewBox="0 0 230.065 162.265">
  <defs>
    <filter id="Path_1240" x="24.904" y="5.46" width="37.984" height="29.326" filterUnits="userSpaceOnUse">
      <feOffset dy="3" input="SourceAlpha"/>
      <feGaussianBlur stdDeviation="3" result="blur"/>
      <feFlood flood-opacity="0.161"/>
      <feComposite operator="in" in2="blur"/>
      <feComposite in="SourceGraphic"/>
    </filter>
    <filter id="Path_1241" x="25.986" y="6.876" width="36.895" height="29.031" filterUnits="userSpaceOnUse">
      <feOffset dy="3" input="SourceAlpha"/>
      <feGaussianBlur stdDeviation="3" result="blur-2"/>
      <feFlood flood-opacity="0.161"/>
      <feComposite operator="in" in2="blur-2"/>
      <feComposite in="SourceGraphic"/>
    </filter>
    <filter id="Path_1242" x="27.553" y="8.69" width="35.323" height="28.115" filterUnits="userSpaceOnUse">
      <feOffset dy="3" input="SourceAlpha"/>
      <feGaussianBlur stdDeviation="3" result="blur-3"/>
      <feFlood flood-opacity="0.161"/>
      <feComposite operator="in" in2="blur-3"/>
      <feComposite in="SourceGraphic"/>
    </filter>
    <filter id="Path_1243" x="24.904" y="4.539" width="36.962" height="28.453" filterUnits="userSpaceOnUse">
      <feOffset dy="3" input="SourceAlpha"/>
      <feGaussianBlur stdDeviation="3" result="blur-4"/>
      <feFlood flood-opacity="0.161"/>
      <feComposite operator="in" in2="blur-4"/>
      <feComposite in="SourceGraphic"/>
    </filter>
    <filter id="Path_1244" x="29.123" y="10.504" width="33.753" height="27.205" filterUnits="userSpaceOnUse">
      <feOffset dy="3" input="SourceAlpha"/>
      <feGaussianBlur stdDeviation="3" result="blur-5"/>
      <feFlood flood-opacity="0.161"/>
      <feComposite operator="in" in2="blur-5"/>
      <feComposite in="SourceGraphic"/>
    </filter>
    <filter id="Path_1245" x="24.899" y="3.66" width="35.395" height="27.513" filterUnits="userSpaceOnUse">
      <feOffset dy="3" input="SourceAlpha"/>
      <feGaussianBlur stdDeviation="3" result="blur-6"/>
      <feFlood flood-opacity="0.161"/>
      <feComposite operator="in" in2="blur-6"/>
      <feComposite in="SourceGraphic"/>
    </filter>
    <filter id="Path_1246" x="30.643" y="12.316" width="32.231" height="26.307" filterUnits="userSpaceOnUse">
      <feOffset dy="3" input="SourceAlpha"/>
      <feGaussianBlur stdDeviation="3" result="blur-7"/>
      <feFlood flood-opacity="0.161"/>
      <feComposite operator="in" in2="blur-7"/>
      <feComposite in="SourceGraphic"/>
    </filter>
    <filter id="Path_1247" x="24.91" y="2.721" width="33.812" height="26.622" filterUnits="userSpaceOnUse">
      <feOffset dy="3" input="SourceAlpha"/>
      <feGaussianBlur stdDeviation="3" result="blur-8"/>
      <feFlood flood-opacity="0.161"/>
      <feComposite operator="in" in2="blur-8"/>
      <feComposite in="SourceGraphic"/>
    </filter>
    <filter id="Path_1248" x="32.26" y="14.13" width="30.618" height="25.404" filterUnits="userSpaceOnUse">
      <feOffset dy="3" input="SourceAlpha"/>
      <feGaussianBlur stdDeviation="3" result="blur-9"/>
      <feFlood flood-opacity="0.161"/>
      <feComposite operator="in" in2="blur-9"/>
      <feComposite in="SourceGraphic"/>
    </filter>
    <filter id="Path_1249" x="24.897" y="1.833" width="32.256" height="25.716" filterUnits="userSpaceOnUse">
      <feOffset dy="3" input="SourceAlpha"/>
      <feGaussianBlur stdDeviation="3" result="blur-10"/>
      <feFlood flood-opacity="0.161"/>
      <feComposite operator="in" in2="blur-10"/>
      <feComposite in="SourceGraphic"/>
    </filter>
    <filter id="Path_1250" x="33.833" y="15.944" width="29.041" height="24.486" filterUnits="userSpaceOnUse">
      <feOffset dy="3" input="SourceAlpha"/>
      <feGaussianBlur stdDeviation="3" result="blur-11"/>
      <feFlood flood-opacity="0.161"/>
      <feComposite operator="in" in2="blur-11"/>
      <feComposite in="SourceGraphic"/>
    </filter>
    <filter id="Path_1251" x="24.907" y="0.927" width="30.674" height="24.799" filterUnits="userSpaceOnUse">
      <feOffset dy="3" input="SourceAlpha"/>
      <feGaussianBlur stdDeviation="3" result="blur-12"/>
      <feFlood flood-opacity="0.161"/>
      <feComposite operator="in" in2="blur-12"/>
      <feComposite in="SourceGraphic"/>
    </filter>
    <filter id="Path_1252" x="24.898" y="0" width="29.116" height="23.925" filterUnits="userSpaceOnUse">
      <feOffset dy="3" input="SourceAlpha"/>
      <feGaussianBlur stdDeviation="3" result="blur-13"/>
      <feFlood flood-opacity="0.161"/>
      <feComposite operator="in" in2="blur-13"/>
      <feComposite in="SourceGraphic"/>
    </filter>
    <filter id="Path_1253" x="0.009" y="88.323" width="24.939" height="29.459" filterUnits="userSpaceOnUse">
      <feOffset dy="3" input="SourceAlpha"/>
      <feGaussianBlur stdDeviation="3" result="blur-14"/>
      <feFlood flood-opacity="0.161"/>
      <feComposite operator="in" in2="blur-14"/>
      <feComposite in="SourceGraphic"/>
    </filter>
    <filter id="Path_1254" x="6.892" y="88.387" width="24.851" height="29.396" filterUnits="userSpaceOnUse">
      <feOffset dy="3" input="SourceAlpha"/>
      <feGaussianBlur stdDeviation="3" result="blur-15"/>
      <feFlood flood-opacity="0.161"/>
      <feComposite operator="in" in2="blur-15"/>
      <feComposite in="SourceGraphic"/>
    </filter>
    <filter id="Path_1255" x="0" y="88.322" width="25.024" height="33.536" filterUnits="userSpaceOnUse">
      <feOffset dy="3" input="SourceAlpha"/>
      <feGaussianBlur stdDeviation="3" result="blur-16"/>
      <feFlood flood-opacity="0.161"/>
      <feComposite operator="in" in2="blur-16"/>
      <feComposite in="SourceGraphic"/>
    </filter>
    <filter id="Path_1256" x="6.921" y="96.653" width="24.855" height="25.179" filterUnits="userSpaceOnUse">
      <feOffset dy="3" input="SourceAlpha"/>
      <feGaussianBlur stdDeviation="3" result="blur-17"/>
      <feFlood flood-opacity="0.161"/>
      <feComposite operator="in" in2="blur-17"/>
      <feComposite in="SourceGraphic"/>
    </filter>
    <filter id="Path_1257" x="6.771" y="101.148" width="24.941" height="27.655" filterUnits="userSpaceOnUse">
      <feOffset dy="3" input="SourceAlpha"/>
      <feGaussianBlur stdDeviation="3" result="blur-18"/>
      <feFlood flood-opacity="0.161"/>
      <feComposite operator="in" in2="blur-18"/>
      <feComposite in="SourceGraphic"/>
    </filter>
    <filter id="Path_1258" x="0.057" y="101.169" width="24.823" height="27.572" filterUnits="userSpaceOnUse">
      <feOffset dy="3" input="SourceAlpha"/>
      <feGaussianBlur stdDeviation="3" result="blur-19"/>
      <feFlood flood-opacity="0.161"/>
      <feComposite operator="in" in2="blur-19"/>
      <feComposite in="SourceGraphic"/>
    </filter>
    <filter id="Path_1271" x="194.196" y="124.171" width="35.869" height="38.094" filterUnits="userSpaceOnUse">
      <feOffset dy="3" input="SourceAlpha"/>
      <feGaussianBlur stdDeviation="3" result="blur-20"/>
      <feFlood flood-opacity="0.161"/>
      <feComposite operator="in" in2="blur-20"/>
      <feComposite in="SourceGraphic"/>
    </filter>
  </defs>
  <g id="Group_10742" data-name="Group 10742" transform="translate(-46.336 -984.064)">
    <g id="Group_10738" data-name="Group 10738">
      <g transform="matrix(1, 0, 0, 1, 46.34, 984.06)" filter="url(#Path_1240)">
        <path id="Path_1240-2" data-name="Path 1240" d="M93.248,1077.617c-.309-.311-.308-.309-.73-.065q-4.39,2.539-8.781,5.077c-.084.049-.175.087-.283.14a.88.88,0,0,1-.117-.149c-.089-.186-.194-.188-.366-.086-.8.479-1.612.944-2.42,1.413a.934.934,0,0,1-.145.055l-.075-.073a1.088,1.088,0,0,1,.215-.231q2.306-1.342,4.619-2.672,3.994-2.309,7.988-4.618,3.208-1.853,6.419-3.7a.7.7,0,0,1,.7.231.748.748,0,0,1-.146.735q-3.407,1.971-6.815,3.939A.158.158,0,0,1,93.248,1077.617Z" transform="translate(-46.43 -1061.22)" fill="#9acdd1"/>
      </g>
      <g transform="matrix(1, 0, 0, 1, 46.34, 984.06)" filter="url(#Path_1241)">
        <path id="Path_1241-2" data-name="Path 1241" d="M115.59,1094.1c0,.431.019.773-.011,1.11a.487.487,0,0,1-.228.311q-2.816,1.643-5.641,3.268l-1.235.715-.257-.362c-.529.3-1.051.6-1.571.9-2.558,1.477-5.12,2.947-7.667,4.442-.332.2-.379-.071-.529-.207a10.07,10.07,0,0,1-1.688.856l-.061-.123Z" transform="translate(-61.72 -1081.23)" fill="#9acdd1"/>
      </g>
      <g transform="matrix(1, 0, 0, 1, 46.34, 984.06)" filter="url(#Path_1242)">
        <path id="Path_1242-2" data-name="Path 1242" d="M137.743,1121.552c0,.441.02.792-.012,1.139a.5.5,0,0,1-.245.3q-3.048,1.77-6.1,3.524c-.114.066-.227.134-.34.2-.252.154-.512.371-.638-.148l-7.923,4.57-.273-.354c-.292.165-.579.343-.879.493-.277.139-.5.417-.848.382l-.054-.107Z" transform="translate(-83.87 -1106.86)" fill="#9acdd1"/>
      </g>
      <g transform="matrix(1, 0, 0, 1, 46.34, 984.06)" filter="url(#Path_1243)">
        <path id="Path_1243-2" data-name="Path 1243" d="M99.292,1059.327l-6.053,3.5-.259-.361c-.447.256-.885.5-1.321.755q-4.008,2.314-8.014,4.631c-.135.078-.24.12-.312-.062-.084-.211-.2-.165-.36-.071-.851.5-1.708.987-2.563,1.478l-.079-.072c.075-.089.132-.208.227-.263,2.128-1.232,4.262-2.454,6.391-3.685q3.709-2.143,7.413-4.3,1.809-1.047,3.628-2.077a.375.375,0,0,1,.293-.045C98.6,1058.919,98.909,1059.108,99.292,1059.327Z" transform="translate(-46.43 -1048.2)" fill="#9acdd1"/>
      </g>
      <g transform="matrix(1, 0, 0, 1, 46.34, 984.06)" filter="url(#Path_1244)">
        <path id="Path_1244-2" data-name="Path 1244" d="M159.93,1148.991c0,.445.021.817-.014,1.184-.01.1-.17.215-.286.282q-2.4,1.4-4.816,2.786l-1.6.923c-.379.219-.378.219-.667-.128l-6.314,3.639-.281-.357c-.475.275-.936.549-1.405.807a1.165,1.165,0,0,1-.336.069l-.029-.109Z" transform="translate(-106.06 -1132.49)" fill="#9acdd1"/>
      </g>
      <g transform="matrix(1, 0, 0, 1, 46.34, 984.06)" filter="url(#Path_1245)">
        <path id="Path_1245-2" data-name="Path 1245" d="M97.669,1046.011l-6.05,3.494-.276-.356-7.935,4.578-.264-.359-2.784,1.6-.086-.107a1.4,1.4,0,0,1,.233-.22q1.948-1.136,3.9-2.262,5.82-3.361,11.635-6.731c.368-.214.647-.291.991-.006A4.889,4.889,0,0,0,97.669,1046.011Z" transform="translate(-46.37 -1035.79)" fill="#9acdd1"/>
      </g>
      <g transform="matrix(1, 0, 0, 1, 46.34, 984.06)" filter="url(#Path_1246)">
        <path id="Path_1246-2" data-name="Path 1246" d="M167.184,1184.641l14.228-8.217c0,.443.012.82-.01,1.195,0,.078-.125.169-.212.22-2.185,1.269-4.377,2.527-6.556,3.807-.3.177-.451.119-.574-.2l-4.767,2.748-.271-.325c-.563.291-1.113.577-1.666.857C167.335,1184.74,167.283,1184.693,167.184,1184.641Z" transform="translate(-127.54 -1158.11)" fill="#9acdd1"/>
      </g>
      <g transform="matrix(1, 0, 0, 1, 46.34, 984.06)" filter="url(#Path_1247)">
        <path id="Path_1247-2" data-name="Path 1247" d="M96.239,1031.832c-1.993,1.154-3.932,2.277-5.873,3.4-.141.081-.272.143-.369-.081-.087-.2-.241-.088-.36-.02q-1.728.994-3.452,1.993-1.2.693-2.4,1.386c-.153.089-.287.172-.388-.073-.089-.214-.237-.087-.353-.02-.791.455-1.578.915-2.368,1.371a1.641,1.641,0,0,1-.173.076l-.079-.074a1.212,1.212,0,0,1,.236-.251q2.552-1.482,5.11-2.953,4.538-2.621,9.072-5.247a.435.435,0,0,1,.533-.011C95.642,1031.5,95.927,1031.651,96.239,1031.832Z" transform="translate(-46.52 -1022.52)" fill="#9acdd1"/>
      </g>
      <g transform="matrix(1, 0, 0, 1, 46.34, 984.06)" filter="url(#Path_1248)">
        <path id="Path_1248-2" data-name="Path 1248" d="M196.907,1208.889l-3.2,1.845c-.048-.052-.109-.091-.131-.146-.08-.2-.192-.194-.358-.094q-.607.365-1.229.7a1.167,1.167,0,0,1-.3.072l-.045-.12,12.613-7.284c0,.439.017.809-.012,1.175-.007.095-.145.2-.247.263q-3.077,1.788-6.16,3.565c-.1.055-.188.114-.282.171C197.309,1209.188,197.061,1209.366,196.907,1208.889Z" transform="translate(-150.38 -1183.74)" fill="#9acdd1"/>
      </g>
      <g transform="matrix(1, 0, 0, 1, 46.34, 984.06)" filter="url(#Path_1249)">
        <path id="Path_1249-2" data-name="Path 1249" d="M80.233,1025.428a1.055,1.055,0,0,1,.211-.23q3.337-1.934,6.68-3.858c1.951-1.126,3.9-2.245,5.847-3.385a.618.618,0,0,1,.8-.006,7.035,7.035,0,0,0,.723.429L88.4,1021.9l-.257-.357c-.445.25-.891.5-1.334.753-1.018.586-2.039,1.168-3.049,1.767-.264.156-.483.3-.629-.152l-2.809,1.609Z" transform="translate(-46.34 -1009.97)" fill="#9acdd1"/>
      </g>
      <g transform="matrix(1, 0, 0, 1, 46.34, 984.06)" filter="url(#Path_1250)">
        <path id="Path_1250-2" data-name="Path 1250" d="M226.476,1231.307c0,.43.009.8-.008,1.17a.336.336,0,0,1-.163.217q-3.43,1.991-6.866,3.97a.332.332,0,0,1-.086.015l-.255-.331-1.575.9c-.03-.009-.062-.009-.069-.022-.157-.312-.346-.291-.612-.108a11.153,11.153,0,0,1-1.054.608,1.123,1.123,0,0,1-.311.065l-.041-.11Z" transform="translate(-172.6 -1209.36)" fill="#9acdd1"/>
      </g>
      <g transform="matrix(1, 0, 0, 1, 46.34, 984.06)" filter="url(#Path_1251)">
        <path id="Path_1251-2" data-name="Path 1251" d="M93.051,1004.665c-1.047.607-2.044,1.186-3.042,1.762-.931.537-1.867,1.067-2.795,1.611-.177.1-.3.174-.415-.068-.1-.215-.241-.072-.354-.006-.886.509-1.773,1.019-2.654,1.537-.191.113-.343.207-.469-.078-.017-.038-.217-.043-.3,0-.823.464-1.639.941-2.456,1.414-.036.021-.075.035-.113.053l-.08-.071a1.245,1.245,0,0,1,.246-.268c1.071-.628,2.147-1.248,3.223-1.868,2.578-1.487,5.159-2.969,7.73-4.468a.591.591,0,0,1,.743.014C92.528,1004.384,92.767,1004.5,93.051,1004.665Z" transform="translate(-46.47 -997.16)" fill="#9acdd1"/>
      </g>
      <g transform="matrix(1, 0, 0, 1, 46.34, 984.06)" filter="url(#Path_1252)">
        <path id="Path_1252-2" data-name="Path 1252" d="M83.383,994.749l-.255-.365-2.793,1.6-.081-.09a1.686,1.686,0,0,1,.292-.282q2.021-1.178,4.05-2.341c1.808-1.043,3.619-2.081,5.422-3.133a.392.392,0,0,1,.476,0c.266.171.546.318.875.506-.631.367-1.214.709-1.8,1.046-1.351.779-2.705,1.552-4.051,2.339-.176.1-.287.149-.388-.065s-.221-.1-.349-.03C84.327,994.208,83.87,994.469,83.383,994.749Z" transform="translate(-46.35 -984.06)" fill="#9acdd1"/>
      </g>
    </g>
  </g>
  <g id="Group_10743" data-name="Group 10743" transform="translate(1272.676 -1588.616)">
    <g transform="matrix(1, 0, 0, 1, -1272.68, 1588.62)" filter="url(#Path_1253)">
      <path id="Path_1253-2" data-name="Path 1253" d="M-1263.474,1694.361q1.437-2.392,2.874-4.784,1.932-3.211,3.867-6.419l.121-.2a.7.7,0,0,1,.073.364c0,2.571,0,5.141,0,7.712a.446.446,0,0,1-.3.461c-.854.382-1.7.775-2.556,1.16-.906.41-1.81.826-2.719,1.231-.353.157-.7.315-1.055.479C-1263.264,1694.41-1263.371,1694.451-1263.474,1694.361Z" transform="translate(1272.48 -1588.63)" fill="#9acdd1"/>
    </g>
    <g transform="matrix(1, 0, 0, 1, -1272.68, 1588.62)" filter="url(#Path_1254)">
      <path id="Path_1254-2" data-name="Path 1254" d="M-1109.126,1684.4c.543.893,1.089,1.785,1.629,2.68q2.562,4.248,5.12,8.5c.023.038.042.078.062.118-.049.16-.158.086-.242.053-.3-.116-.583-.256-.873-.388q-2.649-1.208-5.3-2.41c-.17-.077-.4-.107-.428-.364q0-3.967,0-7.932C-1109.158,1684.567-1109.191,1684.474-1109.126,1684.4Z" transform="translate(1125.06 -1590.01)" fill="#9acdd1"/>
    </g>
    <g transform="matrix(1, 0, 0, 1, -1272.68, 1588.62)" filter="url(#Path_1255)">
      <path id="Path_1255-2" data-name="Path 1255" d="M-1256.744,1683c0,.119-.01.237-.01.356q0,3.955,0,7.91a.556.556,0,0,1,.1.441q0,2.391,0,4.782c0,.526,0,1.053,0,1.579a.5.5,0,0,1-.1.376c-.086.07-.139-.019-.193-.05q-3.3-1.946-6.59-3.9c-.053-.032-.172-.029-.13-.151a.62.62,0,0,0,.25-.087q3.212-1.458,6.425-2.916c.124-.056.2-.112.2-.273q-.009-3.976,0-7.952c0-.059,0-.119-.007-.178C-1256.755,1682.932-1256.754,1682.972-1256.744,1683Z" transform="translate(1272.68 -1588.62)" fill="#9acdd1"/>
    </g>
    <g transform="matrix(1, 0, 0, 1, -1272.68, 1588.62)" filter="url(#Path_1256)">
      <path id="Path_1256-2" data-name="Path 1256" d="M-1108.5,1876.894q0-3.589,0-7.179c.581.26,1.162.52,1.742.782q1.863.842,3.724,1.687c.378.171.754.346,1.133.516.069.031.133.108.223.046.106.161-.063.171-.131.212-.814.487-1.633.968-2.451,1.451l-4.022,2.377C-1108.354,1876.827-1108.429,1876.858-1108.5,1876.894Z" transform="translate(1124.42 -1767.06)" fill="#9acdd1"/>
    </g>
    <g transform="matrix(1, 0, 0, 1, -1272.68, 1588.62)" filter="url(#Path_1257)">
      <path id="Path_1257-2" data-name="Path 1257" d="M-1111.76,1974.521l4.857-2.854,1.977-1.165a.241.241,0,0,1-.077.187q-3.321,4.677-6.647,9.349c-.027.038-.044.209-.155.057a3.037,3.037,0,0,1-.058-.817c0-1.455,0-2.91,0-4.366C-1111.86,1974.777-1111.9,1974.624-1111.76,1974.521Z" transform="translate(1127.64 -1863.35)" fill="#9acdd1"/>
    </g>
    <g transform="matrix(1, 0, 0, 1, -1272.68, 1588.62)" filter="url(#Path_1258)">
      <path id="Path_1258-2" data-name="Path 1258" d="M-1255.588,1974.965q0,2.67,0,5.34c0,.08.018.165-.045.233q-1.754-2.467-3.509-4.934-1.554-2.186-3.105-4.374c-.056-.078-.109-.158-.162-.234.039-.055.069-.018.1,0Z" transform="translate(1271.46 -1863.8)" fill="#9acdd1"/>
    </g>
  </g>
  <g transform="matrix(1, 0, 0, 1, 0, 0)" filter="url(#Path_1271)">
    <path id="Path_1271-2" data-name="Path 1271" d="M-2300.432,3120.993a7.978,7.978,0,0,1-6.347-3.826c-.333-.5-.259-.752.143-1.15,3.259-3.222,6.492-6.47,9.733-9.711.514-.514.511-.53-.129-.929a4.684,4.684,0,0,0-6.944,2.424,9.281,9.281,0,0,0-.4,4.456,1.094,1.094,0,0,1-.361,1.061c-.8.756-1.574,1.546-2.345,2.335-.229.234-.36.318-.521-.066-1.635-3.9-1.1-9.509,2.287-12.567a8.78,8.78,0,0,1,13.018,1.784c.259.411.136.61-.154.9q-4.918,4.894-9.816,9.807c-.549.549-.549.556.129.982,2.892,1.816,6.422.241,7.23-3.233a9.548,9.548,0,0,0,.147-3.729,1.069,1.069,0,0,1,.363-1.061c.8-.756,1.569-1.551,2.344-2.336.2-.2.318-.315.48.053,1.769,4.031,1.191,10.083-2.772,13.13C-2295.833,3120.456-2297.593,3121.01-2300.432,3120.993Z" transform="translate(2511.69 -2970.73)" fill="#9acdd1"/>
  </g>
  <g id="Group_10744" data-name="Group 10744" transform="translate(1990.891 -3417.555)">
    <path id="Path_1265" data-name="Path 1265" d="M-1808.891,3424.694h3.656v3.669h-3.656Z" fill="#9acdd1"/>
    <path id="Path_1266" data-name="Path 1266" d="M-1692.991,3428.391v-3.659h3.672v3.659Z" transform="translate(-98.376 -0.032)" fill="#9acdd1"/>
    <path id="Path_1267" data-name="Path 1267" d="M-1776.281,3482.532h-3.644v-3.681h3.644Z" transform="translate(-24.586 -45.968)" fill="#9acdd1"/>
    <path id="Path_1268" data-name="Path 1268" d="M-1721.808,3478.851h3.662v3.663h-3.662Z" transform="translate(-73.916 -45.968)" fill="#9acdd1"/>
    <path id="Path_1269" data-name="Path 1269" d="M-1747.432,3424.746v3.682h-3.625v-3.682Z" transform="translate(-49.089 -0.044)" fill="#9acdd1"/>
    <path id="Path_1270" data-name="Path 1270" d="M-1751.116,3533.724h3.641v3.665h-3.641Z" transform="translate(-49.039 -92.544)" fill="#9acdd1"/>
  </g>
  <circle id="Ellipse_44" data-name="Ellipse 44" cx="2" cy="2" r="2" transform="translate(65 99.859)" fill="#9acdd1"/>
  <circle id="Ellipse_45" data-name="Ellipse 45" cx="2" cy="2" r="2" transform="translate(103 139.859)" fill="#9acdd1"/>
  <circle id="Ellipse_46" data-name="Ellipse 46" cx="2" cy="2" r="2" transform="translate(105 47.859)" fill="#9acdd1"/>
  <circle id="Ellipse_47" data-name="Ellipse 47" cx="2" cy="2" r="2" transform="translate(163 120.859)" fill="#9acdd1"/>
  <circle id="Ellipse_48" data-name="Ellipse 48" cx="2" cy="2" r="2" transform="translate(173 68.859)" fill="#9acdd1"/>
</svg>
