<svg xmlns="http://www.w3.org/2000/svg" width="177.916" height="177.916" viewBox="0 0 177.916 177.916">
  <g id="Group_10508" data-name="Group 10508" transform="translate(-247.833 -49.543)">
    <path id="Subtraction_4" data-name="Subtraction 4" d="M37.525,37.525H0V0H37.525V37.524ZM5.36,5.359v26.8h26.8V5.359Z" transform="translate(248.333 50.044)" fill="#fff" stroke="rgba(0,0,0,0)" stroke-miterlimit="10" stroke-width="1"/>
    <path id="Path_1117" data-name="Path 1117" d="M271.764,50.044H282.49v5.361h10.719V66.127H282.49v5.361H271.764V66.127h-5.359v5.361h-5.366V60.765h5.366V55.405h5.359Z" transform="translate(30.177 0)" fill="#fff"/>
    <rect id="Rectangle_1659" data-name="Rectangle 1659" width="5.359" height="5.361" transform="translate(323.386 50.044)" fill="#fff"/>
    <path id="Path_1118" data-name="Path 1118" d="M290.427,50.044h10.719v5.361h-5.359V66.127h-5.36V92.933h-5.36v5.361H279.7V92.933H268.982V87.57h5.359V82.209h5.36V87.57h5.366V82.209H279.7V71.489h-5.36V66.127h10.725V60.765H279.7V55.405h10.725Z" transform="translate(49.044 0)" fill="#fff"/>
    <rect id="Rectangle_1662" data-name="Rectangle 1662" width="16.085" height="5.361" transform="translate(355.549 50.044)" fill="#fff"/>
    <path id="Subtraction_3" data-name="Subtraction 3" d="M37.529,37.525H0V0H37.529V37.524ZM5.36,5.359v26.8h26.8V5.359Z" transform="translate(387.718 50.044)" fill="#fff" stroke="rgba(0,0,0,0)" stroke-miterlimit="10" stroke-width="1"/>
    <rect id="Rectangle_1665" data-name="Rectangle 1665" width="5.359" height="5.359" transform="translate(350.19 55.405)" fill="#fff"/>
    <rect id="Rectangle_1667" data-name="Rectangle 1667" width="16.085" height="16.085" transform="translate(259.053 60.765)" fill="#fff"/>
    <path id="Path_1121" data-name="Path 1121" d="M304.328,53.22h16.078V63.944h5.359v5.361h-5.359v5.359h-5.359V58.583h-5.36V69.305H298.962v5.359H293.6V85.389h10.726V90.75h16.078v5.361h5.359v5.361h5.366V96.111h5.359v5.361h10.725v10.721h-5.36v5.361h-5.366v-5.361h-5.359v-5.361H320.406v5.361h-5.359v-5.361h-5.36v16.085H293.6v5.361h5.359v5.359H293.6V139h-5.359v-5.363h-5.36v-5.359h5.36v-5.361h-5.36v-5.363h-5.36v5.363h-5.366V101.472h5.366v10.721h10.719v5.361h10.719v-5.361H293.6v-5.361h5.359v-5.359h10.725V96.111H298.962V90.75H288.243V69.305H293.6V63.944h5.359V58.583h5.366Z" transform="translate(56.587 7.544)" fill="#fff"/>
    <rect id="Rectangle_1668" data-name="Rectangle 1668" width="16.078" height="16.085" transform="translate(398.445 60.765)" fill="#fff"/>
    <rect id="Rectangle_1670" data-name="Rectangle 1670" width="5.359" height="5.361" transform="translate(296.582 71.489)" fill="#fff"/>
    <path id="Path_1124" data-name="Path 1124" d="M267.394,56.4h5.359v5.361h5.359v5.359h-5.359v5.361h-5.359Z" transform="translate(45.273 15.091)" fill="#fff"/>
    <path id="Path_1125" data-name="Path 1125" d="M279.308,57.986h5.359V74.069h-5.359v5.361h5.359V74.069h10.725v5.361h-5.359v5.361h-5.366V95.512h5.366V90.153h5.359V84.791h10.719v5.361h-5.36v10.721H290.033v5.361h-5.366V111.6h-26.8v-5.363h21.444v-5.361h-5.359V95.512h5.359V84.791h-5.359V68.706h5.359Z" transform="translate(22.634 18.864)" fill="#fff"/>
    <rect id="Rectangle_1671" data-name="Rectangle 1671" width="5.366" height="5.361" transform="translate(291.216 82.209)" fill="#fff"/>
    <rect id="Rectangle_1674" data-name="Rectangle 1674" width="5.366" height="5.361" transform="translate(355.549 82.209)" fill="#fff"/>
    <rect id="Rectangle_1675" data-name="Rectangle 1675" width="5.359" height="5.361" transform="translate(366.275 82.209)" fill="#fff"/>
    <rect id="Rectangle_1676" data-name="Rectangle 1676" width="5.36" height="10.724" transform="translate(376.994 82.209)" fill="#fff"/>
    <path id="Path_1126" data-name="Path 1126" d="M253.1,62.751h10.725V73.473h10.719v5.361h-5.36v5.359H279.9v5.361H269.183v5.361h-5.359V89.555h-5.359V84.194h5.359V78.834h-5.359v5.359H253.1Z" transform="translate(11.315 30.182)" fill="#fff"/>
    <rect id="Rectangle_1677" data-name="Rectangle 1677" width="10.719" height="5.361" transform="translate(280.497 92.933)" fill="#fff"/>
    <path id="Path_1127" data-name="Path 1127" d="M298.168,62.751h10.719V73.473h10.725v5.361h-5.366v5.359H303.528V78.834h-5.36V73.473h-5.36V68.112h5.36Z" transform="translate(105.636 30.182)" fill="#fff"/>
    <path id="Path_1128" data-name="Path 1128" d="M275.336,64.339h5.36V69.7h10.719v5.361h-5.359v5.359H275.336Z" transform="translate(64.135 33.955)" fill="#fff"/>
    <path id="Path_1129" data-name="Path 1129" d="M248.334,65.928h5.359V82.01h5.359v5.361h5.359V98.094h10.725V92.733H280.5v5.361h16.085v5.359H280.5v5.363h5.36v5.359H275.138V103.454h-5.359v5.363H259.053v10.72h5.359V130.26H253.693v10.724h5.359v5.359H248.334V124.9h5.359v-5.361h-5.359v-5.361h5.359v-5.359h-5.359v-5.363h10.719V98.094H248.334V92.733h5.359V87.371h-5.359Z" transform="translate(0 37.727)" fill="#fff"/>
    <rect id="Rectangle_1680" data-name="Rectangle 1680" width="5.366" height="10.721" transform="translate(291.216 103.655)" fill="#fff"/>
    <rect id="Rectangle_1686" data-name="Rectangle 1686" width="5.366" height="10.722" transform="translate(419.883 114.376)" fill="#fff"/>
    <rect id="Rectangle_1687" data-name="Rectangle 1687" width="5.366" height="5.361" transform="translate(264.412 119.737)" fill="#fff"/>
    <path id="Path_1135" data-name="Path 1135" d="M333.714,70.692h5.359V86.777h5.359v5.359h-5.359V97.5h5.359V92.137H349.8V108.22h-5.366v-5.361h-5.359v5.361H328.355v-5.361H317.629v5.361H312.27v-5.361H306.9V97.5h5.366V92.137H296.185V97.5h5.359v5.359H306.9v5.361h5.366v5.361H301.544V108.22H290.825v-5.361H280.1V92.137h5.366V97.5h5.359V86.777h10.719V76.054H306.9v5.363h5.366v5.361H323V81.416h10.719Z" transform="translate(75.45 49.044)" fill="#fff"/>
    <path id="Path_1136" data-name="Path 1136" d="M268.982,72.281h5.359v5.363h5.36V83H268.982Z" transform="translate(49.044 52.817)" fill="#fff"/>
    <rect id="Rectangle_1689" data-name="Rectangle 1689" width="5.359" height="5.363" transform="translate(387.72 125.098)" fill="#fff"/>
    <rect id="Rectangle_1690" data-name="Rectangle 1690" width="5.366" height="10.721" transform="translate(307.301 130.461)" fill="#fff"/>
    <rect id="Rectangle_1693" data-name="Rectangle 1693" width="5.359" height="5.363" transform="translate(301.942 141.181)" fill="#fff"/>
    <path id="Path_1139" data-name="Path 1139" d="M268.982,77.046h21.444v5.363h-5.36v5.359H268.982Z" transform="translate(49.044 64.135)" fill="#fff"/>
    <rect id="Rectangle_1695" data-name="Rectangle 1695" width="5.359" height="5.359" transform="translate(248.334 146.544)" fill="#fff"/>
    <path id="Path_1141" data-name="Path 1141" d="M262.629,78.635h5.359v5.359h16.085v5.361H273.348v5.361h-5.359V89.355h-5.359Z" transform="translate(33.953 67.909)" fill="#fff"/>
    <rect id="Rectangle_1696" data-name="Rectangle 1696" width="5.359" height="5.361" transform="translate(285.857 151.904)" fill="#fff"/>
    <rect id="Rectangle_1697" data-name="Rectangle 1697" width="10.719" height="5.361" transform="translate(339.471 151.904)" fill="#fff"/>
    <rect id="Rectangle_1700" data-name="Rectangle 1700" width="5.359" height="10.722" transform="translate(269.778 157.264)" fill="#fff"/>
    <rect id="Rectangle_1701" data-name="Rectangle 1701" width="5.359" height="5.361" transform="translate(280.497 157.264)" fill="#fff"/>
    <path id="Path_1143" data-name="Path 1143" d="M272.158,81.811h10.725V92.533h-5.36V87.172h-5.366Z" transform="translate(56.587 75.454)" fill="#fff"/>
    <path id="Path_1144" data-name="Path 1144" d="M266.994,83.4H277.72v5.361h-5.366v5.361h10.725v10.722H277.72V99.484h-5.366v5.359H261.635V99.484h5.36V94.122H256.275V88.761h10.719Z" transform="translate(18.862 79.226)" fill="#fff"/>
    <path id="Path_1145" data-name="Path 1145" d="M267.394,83.4h16.078v5.361h-5.36v5.361h-5.359V88.761h-5.359Z" transform="translate(45.273 79.226)" fill="#fff"/>
    <rect id="Rectangle_1703" data-name="Rectangle 1703" width="5.359" height="5.361" transform="translate(350.19 162.626)" fill="#fff"/>
    <path id="Path_1146" data-name="Path 1146" d="M289.237,83.4H294.6V94.122h-5.359v10.722h-5.366V99.484h-5.359V94.122h5.359V88.761h5.366Z" transform="translate(71.678 79.226)" fill="#fff"/>
    <path id="Path_1147" data-name="Path 1147" d="M289.631,83.4h21.444V94.122h-5.36V88.761H294.99v5.361h-5.359Z" transform="translate(98.089 79.226)" fill="#fff"/>
    <path id="Path_1148" data-name="Path 1148" d="M297.572,83.4h5.359v5.361H308.3v16.083H297.572V99.484h5.359V94.122h-5.359Z" transform="translate(116.951 79.226)" fill="#fff"/>
    <rect id="Rectangle_1704" data-name="Rectangle 1704" width="5.366" height="5.361" transform="translate(264.412 167.987)" fill="#fff"/>
    <path id="Path_1150" data-name="Path 1150" d="M277.124,84.988h5.366V95.711h5.359v5.359H282.49v5.361h5.359v10.722H282.49v5.361h-5.366V111.793h-5.359v5.361h-5.359v-5.361h-5.366V101.071h5.366v5.361h5.359v-5.361h5.359Z" transform="translate(30.177 82.999)" fill="#fff"/>
    <rect id="Rectangle_1707" data-name="Rectangle 1707" width="5.366" height="5.361" transform="translate(328.746 167.987)" fill="#fff"/>
    <rect id="Rectangle_1708" data-name="Rectangle 1708" width="10.719" height="5.361" transform="translate(339.471 167.987)" fill="#fff"/>
    <rect id="Rectangle_1710" data-name="Rectangle 1710" width="5.36" height="5.361" transform="translate(376.994 167.987)" fill="#fff"/>
    <rect id="Rectangle_1711" data-name="Rectangle 1711" width="5.359" height="5.363" transform="translate(269.778 173.348)" fill="#fff"/>
    <path id="Path_1153" data-name="Path 1153" d="M270.57,86.576h5.36v5.363H281.3V97.3h5.36v5.361h5.36v5.361h-5.36v5.361H281.3v5.361h5.36v-5.361h16.078v5.361H292.015V124.1h5.359v5.361h-5.359v5.361h10.719v-5.361H308.1v10.722H286.655V129.465H275.93V124.1h-5.36v-5.361h5.36V108.021h-5.36v-5.361h5.36V97.3h-5.36Z" transform="translate(52.816 86.772)" fill="#fff"/>
    <rect id="Rectangle_1712" data-name="Rectangle 1712" width="5.359" height="5.363" transform="translate(366.275 173.348)" fill="#fff"/>
    <rect id="Rectangle_1713" data-name="Rectangle 1713" width="5.359" height="5.363" transform="translate(409.164 173.348)" fill="#fff"/>
    <path id="Subtraction_5" data-name="Subtraction 5" d="M53.61,48.249H42.889V37.524h5.36V26.8H26.8v5.36h5.36V42.889H26.8V37.524H16.077v-5.36H10.72V21.443h5.357V16.08H0V10.72H16.077V0H48.25v5.36h-5.36v5.36H53.61v5.36H64.334v5.363H58.967V32.164h5.368V42.889H53.61v5.359ZM21.437,26.8h-5.36v5.36h5.36Zm26.813-5.36V26.8h5.36v-5.36Zm0-5.363h-5.36v5.363h5.36ZM21.437,5.359V21.443H37.529V5.359Z" transform="translate(360.915 178.71)" fill="#fff" stroke="rgba(0,0,0,0)" stroke-miterlimit="10" stroke-width="1"/>
    <rect id="Rectangle_1718" data-name="Rectangle 1718" width="5.359" height="5.361" transform="translate(318.027 184.07)" fill="#fff"/>
    <rect id="Rectangle_1720" data-name="Rectangle 1720" width="5.359" height="10.722" transform="translate(350.19 184.07)" fill="#fff"/>
    <path id="Subtraction_6" data-name="Subtraction 6" d="M37.525,37.529H0V0H37.525V37.528ZM5.36,5.359v26.8h26.8V5.359Z" transform="translate(248.333 189.431)" fill="#fff" stroke="rgba(0,0,0,0)" stroke-miterlimit="10" stroke-width="1"/>
    <rect id="Rectangle_1723" data-name="Rectangle 1723" width="5.359" height="5.361" transform="translate(387.72 189.431)" fill="#fff"/>
    <rect id="Rectangle_1725" data-name="Rectangle 1725" width="5.366" height="5.361" transform="translate(355.549 194.792)" fill="#fff"/>
    <rect id="Rectangle_1727" data-name="Rectangle 1727" width="16.085" height="16.083" transform="translate(259.053 200.154)" fill="#fff"/>
    <rect id="Rectangle_1728" data-name="Rectangle 1728" width="5.366" height="10.722" transform="translate(291.216 200.154)" fill="#fff"/>
    <rect id="Rectangle_1730" data-name="Rectangle 1730" width="5.359" height="5.361" transform="translate(318.027 200.154)" fill="#fff"/>
    <rect id="Rectangle_1733" data-name="Rectangle 1733" width="5.359" height="5.361" transform="translate(360.916 200.154)" fill="#fff"/>
    <rect id="Rectangle_1736" data-name="Rectangle 1736" width="5.359" height="5.361" transform="translate(301.942 205.514)" fill="#fff"/>
    <rect id="Rectangle_1738" data-name="Rectangle 1738" width="5.359" height="5.361" transform="translate(312.667 205.514)" fill="#fff"/>
    <rect id="Rectangle_1740" data-name="Rectangle 1740" width="5.366" height="5.361" transform="translate(355.549 205.514)" fill="#fff"/>
    <rect id="Rectangle_1742" data-name="Rectangle 1742" width="5.366" height="10.722" transform="translate(307.301 210.876)" fill="#fff"/>
    <path id="Path_1160" data-name="Path 1160" d="M268.982,97.695h5.359v5.361h5.36v10.722h-5.36v-5.361h-5.359Z" transform="translate(49.044 113.181)" fill="#fff"/>
    <rect id="Rectangle_1744" data-name="Rectangle 1744" width="5.359" height="5.361" transform="translate(360.916 210.876)" fill="#fff"/>
    <rect id="Rectangle_1745" data-name="Rectangle 1745" width="5.359" height="5.361" transform="translate(398.445 210.876)" fill="#fff"/>
    <rect id="Rectangle_1746" data-name="Rectangle 1746" width="5.359" height="10.722" transform="translate(296.582 216.237)" fill="#fff"/>
    <rect id="Rectangle_1748" data-name="Rectangle 1748" width="5.359" height="5.361" transform="translate(366.275 216.237)" fill="#fff"/>
    <rect id="Rectangle_1749" data-name="Rectangle 1749" width="10.726" height="5.361" transform="translate(376.994 221.598)" fill="#fff"/>
    <rect id="Rectangle_1751" data-name="Rectangle 1751" width="5.366" height="5.361" transform="translate(393.079 221.598)" fill="#fff"/>
  </g>
</svg>
