<svg xmlns="http://www.w3.org/2000/svg" width="34.341" height="20.032" viewBox="0 0 34.341 20.032">
  <g id="usb" transform="translate(0 126.699) rotate(-90)">
    <g id="Group_10403" data-name="Group 10403" transform="translate(106.667 0)">
      <path id="Path_1101" data-name="Path 1101" d="M125.984,7.87h-4.293a.715.715,0,0,0-.715.715v4.293a.715.715,0,0,0,.715.715h1.431v1.242a2.157,2.157,0,0,1-1.042,1.84L117.4,19.484V7.154h2.862a.715.715,0,0,0,.606-1.095L117.29.336a.715.715,0,0,0-1.213,0L112.5,6.059a.715.715,0,0,0,.606,1.095h2.862v16.67l-3.9-2.169a2.146,2.146,0,0,1-1.1-1.876v-1.25a3.577,3.577,0,1,0-1.431,0v1.25a3.576,3.576,0,0,0,1.84,3.127l4.6,2.555v1.8a3.577,3.577,0,1,0,1.431,0V21.153l5.417-3.251a3.6,3.6,0,0,0,1.737-3.067V13.593h1.431a.715.715,0,0,0,.715-.715V8.585A.715.715,0,0,0,125.984,7.87Zm-15.74,9.3a2.146,2.146,0,1,1,2.146-2.146A2.149,2.149,0,0,1,110.244,17.17Zm8.585,13.593a2.146,2.146,0,1,1-2.146-2.146A2.149,2.149,0,0,1,118.829,30.764ZM114.4,5.723l2.286-3.658,2.286,3.658H114.4Zm10.871,6.439h-2.862V9.3h2.862Z" transform="translate(-106.667 0)" fill="#fff"/>
    </g>
  </g>
</svg>
