<svg xmlns="http://www.w3.org/2000/svg" width="23" height="23" viewBox="0 0 23 23">
  <path id="direct" d="M9.548,18.725a.742.742,0,0,0-1.049,0L6.554,20.669A.742.742,0,0,0,7.6,21.718l1.944-1.944A.741.741,0,0,0,9.548,18.725ZM4.275,13.452a.741.741,0,0,0-1.049,0L1.282,15.4a.742.742,0,0,0,1.049,1.049L4.275,14.5a.742.742,0,0,0,0-1.049ZM7.79,15.21a.742.742,0,0,0-1.049,0L1.814,20.136a.742.742,0,0,0,1.049,1.049L7.79,16.259A.742.742,0,0,0,7.79,15.21ZM22.963.973,15.932,22.489a.742.742,0,0,1-1.347.142L9.857,14.5a.742.742,0,0,1,.045-.815L11.6,11.4,9.315,13.1a.742.742,0,0,1-.815.045L.369,8.414A.743.743,0,0,1,.511,7.068L22.027.037a.743.743,0,0,1,.936.936Z" transform="translate(0 0)" fill="#edb3bf"/>
</svg>
