<svg id="Group_10531" data-name="Group 10531" xmlns="http://www.w3.org/2000/svg" xmlns:xlink="http://www.w3.org/1999/xlink" width="44" height="45.24" viewBox="0 0 44 45.24">
  <defs>
    <filter id="Path_1253" x="6.12" y="4.76" width="24.939" height="29.459" filterUnits="userSpaceOnUse">
      <feOffset dy="3" input="SourceAlpha"/>
      <feGaussianBlur stdDeviation="3" result="blur"/>
      <feFlood flood-opacity="0.161"/>
      <feComposite operator="in" in2="blur"/>
      <feComposite in="SourceGraphic"/>
    </filter>
    <filter id="Path_1254" x="13.003" y="4.824" width="24.851" height="29.396" filterUnits="userSpaceOnUse">
      <feOffset dy="3" input="SourceAlpha"/>
      <feGaussianBlur stdDeviation="3" result="blur-2"/>
      <feFlood flood-opacity="0.161"/>
      <feComposite operator="in" in2="blur-2"/>
      <feComposite in="SourceGraphic"/>
    </filter>
    <filter id="Path_1255" x="6.111" y="4.759" width="25.024" height="33.536" filterUnits="userSpaceOnUse">
      <feOffset dy="3" input="SourceAlpha"/>
      <feGaussianBlur stdDeviation="3" result="blur-3"/>
      <feFlood flood-opacity="0.161"/>
      <feComposite operator="in" in2="blur-3"/>
      <feComposite in="SourceGraphic"/>
    </filter>
    <filter id="Path_1256" x="13.033" y="13.09" width="24.855" height="25.179" filterUnits="userSpaceOnUse">
      <feOffset dy="3" input="SourceAlpha"/>
      <feGaussianBlur stdDeviation="3" result="blur-4"/>
      <feFlood flood-opacity="0.161"/>
      <feComposite operator="in" in2="blur-4"/>
      <feComposite in="SourceGraphic"/>
    </filter>
    <filter id="Path_1257" x="12.883" y="17.586" width="24.941" height="27.655" filterUnits="userSpaceOnUse">
      <feOffset dy="3" input="SourceAlpha"/>
      <feGaussianBlur stdDeviation="3" result="blur-5"/>
      <feFlood flood-opacity="0.161"/>
      <feComposite operator="in" in2="blur-5"/>
      <feComposite in="SourceGraphic"/>
    </filter>
    <filter id="Path_1258" x="6.168" y="17.606" width="24.823" height="27.572" filterUnits="userSpaceOnUse">
      <feOffset dy="3" input="SourceAlpha"/>
      <feGaussianBlur stdDeviation="3" result="blur-6"/>
      <feFlood flood-opacity="0.161"/>
      <feComposite operator="in" in2="blur-6"/>
      <feComposite in="SourceGraphic"/>
    </filter>
  </defs>
  <rect id="Rectangle_1613" data-name="Rectangle 1613" width="44" height="44" rx="7" fill="#99ced3"/>
  <g id="Rectangle_1614" data-name="Rectangle 1614" transform="translate(2 2)" fill="#5f6366" stroke="#fff" stroke-width="2">
    <rect width="40" height="40" rx="7" stroke="none"/>
    <rect x="1" y="1" width="38" height="38" rx="6" fill="none"/>
  </g>
  <g id="Group_10736" data-name="Group 10736" transform="translate(1278.787 -1672.178)">
    <g transform="matrix(1, 0, 0, 1, -1278.79, 1672.18)" filter="url(#Path_1253)">
      <path id="Path_1253-2" data-name="Path 1253" d="M-1263.474,1694.361q1.437-2.392,2.874-4.784,1.932-3.211,3.867-6.419l.121-.2a.7.7,0,0,1,.073.364c0,2.571,0,5.141,0,7.712a.446.446,0,0,1-.3.461c-.854.382-1.7.775-2.556,1.16-.906.41-1.81.826-2.719,1.231-.353.157-.7.315-1.055.479C-1263.264,1694.41-1263.371,1694.451-1263.474,1694.361Z" transform="translate(1278.59 -1672.19)" fill="#c7d9e6"/>
    </g>
    <g transform="matrix(1, 0, 0, 1, -1278.79, 1672.18)" filter="url(#Path_1254)">
      <path id="Path_1254-2" data-name="Path 1254" d="M-1109.126,1684.4c.543.893,1.089,1.785,1.629,2.68q2.562,4.248,5.12,8.5c.023.038.042.078.062.118-.049.16-.158.086-.242.053-.3-.116-.583-.256-.873-.388q-2.649-1.208-5.3-2.41c-.17-.077-.4-.107-.428-.364q0-3.967,0-7.932C-1109.158,1684.567-1109.191,1684.474-1109.126,1684.4Z" transform="translate(1131.17 -1673.57)" fill="#798085"/>
    </g>
    <g transform="matrix(1, 0, 0, 1, -1278.79, 1672.18)" filter="url(#Path_1255)">
      <path id="Path_1255-2" data-name="Path 1255" d="M-1256.744,1683c0,.119-.01.237-.01.356q0,3.955,0,7.91a.556.556,0,0,1,.1.441q0,2.391,0,4.782c0,.526,0,1.053,0,1.579a.5.5,0,0,1-.1.376c-.086.07-.139-.019-.193-.05q-3.3-1.946-6.59-3.9c-.053-.032-.172-.029-.13-.151a.62.62,0,0,0,.25-.087q3.212-1.458,6.425-2.916c.124-.056.2-.112.2-.273q-.009-3.976,0-7.952c0-.059,0-.119-.007-.178C-1256.755,1682.932-1256.754,1682.972-1256.744,1683Z" transform="translate(1278.79 -1672.18)" fill="#85929b"/>
    </g>
    <g transform="matrix(1, 0, 0, 1, -1278.79, 1672.18)" filter="url(#Path_1256)">
      <path id="Path_1256-2" data-name="Path 1256" d="M-1108.5,1876.894q0-3.589,0-7.179c.581.26,1.162.52,1.742.782q1.863.842,3.724,1.687c.378.171.754.346,1.133.516.069.031.133.108.223.046.106.161-.063.171-.131.212-.814.487-1.633.968-2.451,1.451l-4.022,2.377C-1108.354,1876.827-1108.429,1876.858-1108.5,1876.894Z" transform="translate(1130.53 -1850.62)" fill="#5b6164"/>
    </g>
    <g transform="matrix(1, 0, 0, 1, -1278.79, 1672.18)" filter="url(#Path_1257)">
      <path id="Path_1257-2" data-name="Path 1257" d="M-1111.76,1974.521l4.857-2.854,1.977-1.165a.241.241,0,0,1-.077.187q-3.321,4.677-6.647,9.349c-.027.038-.044.209-.155.057a3.037,3.037,0,0,1-.058-.817c0-1.455,0-2.91,0-4.366C-1111.86,1974.777-1111.9,1974.624-1111.76,1974.521Z" transform="translate(1133.75 -1946.92)" fill="#5b6268"/>
    </g>
    <g transform="matrix(1, 0, 0, 1, -1278.79, 1672.18)" filter="url(#Path_1258)">
      <path id="Path_1258-2" data-name="Path 1258" d="M-1255.588,1974.965q0,2.67,0,5.34c0,.08.018.165-.045.233q-1.754-2.467-3.509-4.934-1.554-2.186-3.105-4.374c-.056-.078-.109-.158-.162-.234.039-.055.069-.018.1,0Z" transform="translate(1277.58 -1947.36)" fill="#9eb6c9"/>
    </g>
  </g>
</svg>
