<svg xmlns="http://www.w3.org/2000/svg" width="24.969" height="24.873" viewBox="0 0 24.969 24.873">
  <g id="import" transform="translate(0 -0.117)">
    <path id="Path_1102" data-name="Path 1102" d="M20.319,16.464H16.174v2.46h4.145c1.233,0,2.19.629,2.19,1.171V31c0,.542-.956,1.172-2.19,1.172H4.649c-1.233,0-2.189-.63-2.189-1.172V20.1c0-.542.956-1.172,2.189-1.172H8.794v-2.46H4.649C2.042,16.465,0,18.06,0,20.1V31c0,2.037,2.042,3.631,4.649,3.631H20.32c2.606,0,4.649-1.6,4.649-3.631V20.1C24.968,18.059,22.926,16.464,20.319,16.464Z" transform="translate(0 -9.645)" fill="#f8f8f8"/>
    <path id="Path_1103" data-name="Path 1103" d="M27.164,11.96a1.226,1.226,0,0,0-.87.361l-1.54,1.539V1.347a1.23,1.23,0,0,0-2.46,0v12.6L20.671,12.32a1.23,1.23,0,0,0-1.739,1.739L22.6,17.731a1.225,1.225,0,0,0,.869.36h.018a1.224,1.224,0,0,0,.869-.36l3.672-3.672a1.23,1.23,0,0,0-.87-2.1Z" transform="translate(-10.958)" fill="#f8f8f8"/>
  </g>
</svg>
