<svg xmlns="http://www.w3.org/2000/svg" width="42.24" height="42.125" viewBox="0 0 42.24 42.125">
  <g id="Group_10730" data-name="Group 10730" transform="translate(-795.791 -454.754)">
    <path id="Path_1216" data-name="Path 1216" d="M852.123,480.7v-25.86c.435-.031.806-.079,1.176-.079,5.953,0,11.906-.022,17.858,0a6.637,6.637,0,0,1,6.941,6.86c.032,6,.009,12,.007,17.994,0,.329-.029.658-.049,1.082Z" transform="translate(-40.12)" fill="#4e6c9b"/>
    <path id="Path_1217" data-name="Path 1217" d="M806.346,511.1v9.741h-9.862V511.1Z" transform="translate(-0.494 -40.133)" fill="#4e6c9b"/>
    <path id="Path_1218" data-name="Path 1218" d="M852.252,566.774h9.77v9.778h-9.77Z" transform="translate(-40.212 -79.782)" fill="#4e6c9b"/>
    <path id="Path_1219" data-name="Path 1219" d="M795.991,464.654c-1.115-7.034,2.463-10.636,9.733-9.765v9.765Z" transform="translate(0 -0.005)" fill="#4e6c9b"/>
    <path id="Path_1220" data-name="Path 1220" d="M908.013,576.472V566.78h9.668C918.937,572.8,915.944,577.59,908.013,576.472Z" transform="translate(-79.926 -79.786)" fill="#4e6c9b"/>
    <path id="Path_1221" data-name="Path 1221" d="M796.272,566.882H805.9v9.62C799.093,577.776,795.1,573.8,796.272,566.882Z" transform="translate(-0.198 -79.859)" fill="#4e6c9b"/>
  </g>
</svg>
