<svg xmlns="http://www.w3.org/2000/svg" width="119.5" height="25.607" viewBox="0 0 119.5 25.607">
  <g id="Component_48_2" data-name="Component 48 – 2" transform="translate(0.5)">
    <g id="Group_10493" data-name="Group 10493" transform="translate(-1482 -766)">
      <text id="Lock_Account" data-name="Lock Account" transform="translate(1550 785)" fill="#fff" font-size="17" font-family="SegoeUI, Segoe UI"><tspan x="-50.278" y="0">Lock Account</tspan></text>
    </g>
    <g id="Group_10494" data-name="Group 10494" transform="translate(-101.094 -253.326)">
      <path id="Subtraction_2" data-name="Subtraction 2" d="M8.131,16.256H8.113A8.128,8.128,0,0,1,8.071,0H8.2a7.979,7.979,0,0,1,5.674,2.373A8.126,8.126,0,0,1,8.131,16.256Zm.019-11.4-.076,0A1.852,1.852,0,0,0,6.393,6.135a1.83,1.83,0,0,0,.676,2.043.263.263,0,0,1,.127.244c0,.334,0,.654,0,1l.006,0,0,.332c0,.227,0,.447,0,.672a.95.95,0,0,0,.931.965.951.951,0,0,0,.946-1.014c0-.619,0-1.248,0-1.867a.369.369,0,0,1,.181-.377.869.869,0,0,0,.176-.158c.021-.021.042-.045.064-.066a1.816,1.816,0,0,0,.289-2A1.857,1.857,0,0,0,8.15,4.854Z" transform="translate(101.094 262.177)" fill="#fff" stroke="rgba(0,0,0,0)" stroke-miterlimit="10" stroke-width="1"/>
      <path id="Path_1114" data-name="Path 1114" d="M151.249,260.881c0-.79-.016-1.58,0-2.369a5.108,5.108,0,0,1,1.288-3.307,5.287,5.287,0,0,1,4.545-1.865,5.367,5.367,0,0,1,4.951,4.743,5.425,5.425,0,0,1,.03.626q0,2.352,0,4.7a.541.541,0,0,1,0,.07c-.006.048.022.115-.044.136-.05.016-.08-.037-.115-.066a8.326,8.326,0,0,0-1.266-.89,1.823,1.823,0,0,0-.292-.154.4.4,0,0,1-.289-.459c.014-1.092.008-2.183.006-3.275a3.371,3.371,0,0,0-1.093-2.548,3.461,3.461,0,0,0-4.434-.165,3.357,3.357,0,0,0-1.291,2.733c0,1.115,0,2.23,0,3.345a.305.305,0,0,1-.2.323,7.635,7.635,0,0,0-1.651,1.092c-.034.029-.064.082-.115.062s-.04-.09-.04-.139q0-1.3,0-2.6Z" transform="translate(-47.428 0)" fill="#fff"/>
    </g>
  </g>
</svg>
