<svg xmlns="http://www.w3.org/2000/svg" width="82.227" height="56.928" viewBox="0 0 82.227 56.928">
  <path id="Path_1162" data-name="Path 1162" d="M744.851,208.327,729.005,175.5a4.6,4.6,0,0,0-8.221,0l-12.177,25.727a4.309,4.309,0,0,0-6.82-3.31L713.6,172.959H700.843l-14.815,30.983a2.574,2.574,0,0,1-4.628.031l-7.2-14.547a5.8,5.8,0,0,0-10.413,5.089l15.847,32.83a4.594,4.594,0,0,0,8.219,0L700,201.7a4.309,4.309,0,0,0,6.881,3.18l-11.836,25H707.8L722.614,198.9a2.571,2.571,0,0,1,4.626-.031l7.2,14.547a5.8,5.8,0,0,0,10.413-5.089Z" transform="translate(-663.207 -172.957)" fill="#4e6c9b"/>
</svg>
