<svg xmlns="http://www.w3.org/2000/svg" id="Group_10452" width="49.111" height="34" viewBox="0 0 49.111 34">
    <defs>
        <style>
            .cls-4{mix-blend-mode:lighten;isolation:isolate;fill:#edb3bf;opacity:.7}
        </style>
    </defs>
    <g id="Group_10284">
        <path id="Path_12" fill="#fff" d="M711.969 194.083l-9.464-19.608a2.745 2.745 0 0 0-4.91 0l-7.273 15.365a2.573 2.573 0 0 0-4.073-1.977l7.055-14.9h-7.619l-8.848 18.5a1.537 1.537 0 0 1-2.764.018l-4.3-8.688a3.461 3.461 0 0 0-6.219 3.039l9.465 19.608a2.744 2.744 0 0 0 4.909 0l7.251-15.317a2.573 2.573 0 0 0 4.11 1.9l-7.069 14.934h7.619l8.85-18.5a1.536 1.536 0 0 1 2.763-.018l4.3 8.688a3.461 3.461 0 0 0 6.219-3.039z" transform="translate(-663.207 -172.958)"/>
        <g id="Group_10283" transform="translate(0 7.91)" style="mix-blend-mode:lighten;isolation:isolate" opacity="0.8">
            <path id="Path_13" fill="#edb3bf" d="M674.073 189.6l-4.3-8.688a3.461 3.461 0 0 0-6.219 3.04l4.3 8.914c1.015 2.022 6.789-2.116 6.219-3.266z" transform="translate(-663.207 -178.987)"/>
        </g>
        <path id="Path_14" d="M685.034 186.412a2.573 2.573 0 0 0-4.073-1.977l-1.07 2.26a2.573 2.573 0 0 0 4.11 1.9z" class="cls-4" transform="translate(-658.004 -169.529)"/>
        <path id="Path_15" d="M695.032 174.475a2.745 2.745 0 0 0-4.91 0l-2.949 6.23h10.735z" transform="translate(-655.733 -172.958)" style="mix-blend-mode:lighten;isolation:isolate" fill="#edb3bf" opacity="0.8"/>
        <path id="Path_16" d="M675.879 185.2l5.854-12.243h7.619l-7.052 14.906z" class="cls-4" transform="translate(-659.255 -172.957)"/>
    </g>
</svg>
