<svg id="Component_46_3" data-name="Component 46 – 3" xmlns="http://www.w3.org/2000/svg" width="26" height="26" viewBox="0 0 26 26">
  <g id="Rectangle_1780" data-name="Rectangle 1780" fill="#5f6366" stroke="#fff" stroke-width="2">
    <rect width="26" height="26" stroke="none"/>
    <rect x="1" y="1" width="24" height="24" fill="none"/>
  </g>
  <g id="export" transform="translate(5.801 5.801)">
    <g id="Group_10707" data-name="Group 10707" transform="translate(0)">
      <g id="Group_10706" data-name="Group 10706" transform="translate(0)">
        <path id="Path_1176" data-name="Path 1176" d="M223.242,1.007H225.9l-6.077,6.08a.5.5,0,1,0,.711.714l6.08-6.08V4.379a.5.5,0,1,0,1.007,0V.505A.505.505,0,0,0,227.116,0h-3.874a.5.5,0,1,0,0,1.007Z" transform="translate(-213.223)" fill="#fff" stroke="#fff" stroke-width="1"/>
        <path id="Path_1177" data-name="Path 1177" d="M3.022,14.4h8.35A3.025,3.025,0,0,0,14.4,11.376V7.443a.5.5,0,0,0-1.007,0v3.93a2.018,2.018,0,0,1-2.015,2.015H3.022a2.018,2.018,0,0,1-2.015-2.015V3.025A2.018,2.018,0,0,1,3.022,1.01h3.9A.505.505,0,0,0,6.92,0h-3.9A3.025,3.025,0,0,0,0,3.022v8.35A3.028,3.028,0,0,0,3.022,14.4Z" transform="translate(0)" fill="#fff" stroke="#fff" stroke-width="1"/>
      </g>
    </g>
  </g>
</svg>
