<svg xmlns="http://www.w3.org/2000/svg" width="58" height="58" viewBox="0 0 58 58">
    <defs>
        <linearGradient id="bvev4upyqb" x1=".5" x2=".5" y2="1" gradientUnits="objectBoundingBox">
            <stop offset="0" stop-color="#edb3bf"/>
            <stop offset="1" stop-color="#5f6267"/>
        </linearGradient>
        <filter id="jjwmkjzt6a" width="58" height="58" x="0" y="0" filterUnits="userSpaceOnUse">
            <feOffset dy="3"/>
            <feGaussianBlur result="blur" stdDeviation="3"/>
            <feFlood flood-color="#edb3bf" flood-opacity=".2"/>
            <feComposite in2="blur" operator="in"/>
            <feComposite in="SourceGraphic"/>
        </filter>
    </defs>
    <g>
        <g filter="url(#jjwmkjzt6a)" transform="translate(-1721.991 -156) matrix(1, 0, 0, 1, 1721.99, 156)">
            <path fill="#edb3bf" d="M0 0H40V40H0z" transform="translate(9 6)"/>
        </g>
        <g fill="url(#bvev4upyqb)" stroke="#fff" stroke-width="2px" transform="translate(-1721.991 -156) translate(1731.991 163)">
            <path stroke="none" d="M0 0H38V38H0z"/>
            <path fill="none" d="M1 1H37V37H1z"/>
        </g>
        <g>
            <g>
                <path fill="#f5d4db" d="M188.9 585.11a13.218 13.218 0 0 1-2.766-6.266c-.143-.949.052-1.324 1.126-1.316q10.25.069 20.5 0c1.058-.006 1.227.335 1.109 1.326a13.3 13.3 0 0 1-2.726 6.271 3.577 3.577 0 0 1-1.6 1.946 11.935 11.935 0 0 1-14.895-.625c-.402-.355-.82-.711-.748-1.336z" transform="translate(-1721.991 -156) translate(1553.455 -405.099) translate(186.089 577.528) translate(-186.09 -577.528)"/>
                <path fill="#fefefe" d="M188.9 600.93c4.456 4.674 11.7 5.547 17.243.018 3.194.105 3.279.233 2.276 3.441a11.471 11.471 0 0 1-11.57 8.059 11.648 11.648 0 0 1-10.73-10.147c-.117-.966.1-1.441 1.166-1.331a12.125 12.125 0 0 0 1.615-.04z" transform="translate(-1721.991 -156) translate(1553.455 -405.099) translate(186.089 577.528) translate(-186.089 -593.348)"/>
            </g>
        </g>
    </g>
</svg>
