<svg xmlns="http://www.w3.org/2000/svg" width="52" height="52" viewBox="0 0 52 52">
  <g id="Group_10531" data-name="Group 10531" transform="translate(-1730.221 -162.229)">
    <rect id="Rectangle_1613" data-name="Rectangle 1613" width="52" height="52" rx="7" transform="translate(1730.221 162.229)" fill="#1fb9a3"/>
    <g id="Rectangle_1614" data-name="Rectangle 1614" transform="translate(1732.221 164.229)" fill="#5f6366" stroke="#fff" stroke-width="2">
      <rect width="48" height="48" rx="7" stroke="none"/>
      <rect x="1" y="1" width="46" height="46" rx="6" fill="none"/>
    </g>
    <g id="Group_10734" data-name="Group 10734" transform="translate(2208.735 -1034.317)">
      <path id="Path_1229" data-name="Path 1229" d="M-461.766,1235.315c.439-.759.875-1.52,1.317-2.278q5.375-9.212,10.753-18.423c.065-.111.132-.219.2-.329.138-.172.213-.072.259.069a1.486,1.486,0,0,1,.028.466q0,3.432,0,6.863a3.668,3.668,0,0,0,.059.848.68.68,0,0,1-.141.628,1.311,1.311,0,0,0-.265.655c-.519,1.075-1.174,2.074-1.773,3.105q-1.208,2.082-2.425,4.159a1.072,1.072,0,0,1-.143.212,1.058,1.058,0,0,1-.766.489c-1.285.778-2.6,1.5-3.9,2.248-.759.44-1.535.851-2.287,1.3a1.615,1.615,0,0,1-.5.221C-461.549,1235.566-461.82,1235.72-461.766,1235.315Z" transform="translate(-3.244 -2.497)" fill="#fe5000"/>
      <path id="Path_1230" data-name="Path 1230" d="M-315.371,1213.268c1,1.542,1.873,3.154,2.8,4.738q2.186,3.747,4.357,7.5l5.06,8.717c.036.062.077.12.116.179a1.367,1.367,0,0,1,.146.259c.091.216-.024.264-.2.222a1.926,1.926,0,0,1-.5-.236c-1.951-1.128-3.895-2.268-5.869-3.355-.248-.136-.5-.27-.743-.413-.616-1.178-1.349-2.287-2.017-3.434-.811-1.392-1.685-2.748-2.452-4.166a4.511,4.511,0,0,0-.374-.464,5.29,5.29,0,0,1-.476-1.137c-.028-2.692-.006-5.384-.009-8.075C-315.533,1213.476-315.579,1213.306-315.371,1213.268Z" transform="translate(-136.96 -1.65)" fill="#9d1f63"/>
      <path id="Path_1231" data-name="Path 1231" d="M-445.376,1417.582l5.374,3.053c.586.333,1.175.662,1.833,1.032l-.122-.454a.584.584,0,0,1,.234.3c.152.322.011.558-.349.561-.911.006-1.823,0-2.735,0q-10.875,0-21.749,0c-.192,0-.442.112-.561-.167a.236.236,0,0,1,.2-.1,7.154,7.154,0,0,0,1.192-.023q11.287.01,22.573,0a1.826,1.826,0,0,0,.527-.034,4.841,4.841,0,0,0-.655-.411c-1.85-1.04-3.685-2.1-5.523-3.165-.178-.1-.4-.172-.478-.4a.242.242,0,0,1,.024-.15A.2.2,0,0,1-445.376,1417.582Z" transform="translate(-1.71 -188.458)" fill="#280328"/>
      <path id="Path_1232" data-name="Path 1232" d="M-464.988,1422.022l-.173,0c-.146-.045-.221-.116-.1-.262a6.473,6.473,0,0,0,.7-.25q3.158-1.794,6.315-3.589c.109-.062.212-.136.318-.2.113-.027.218-.038.249.113a.489.489,0,0,1-.3.383c-1.317.759-2.632,1.523-3.953,2.274-.754.428-1.491.885-2.256,1.293A1.553,1.553,0,0,1-464.988,1422.022Z" transform="translate(0 -188.583)" fill="#32060f"/>
      <path id="Path_1233" data-name="Path 1233" d="M-317.977,1211.618a.8.8,0,0,0-.075.5q0,4.023,0,8.046-.019.1-.078.017a.936.936,0,0,1-.087-.581c0-2.479.009-4.958,0-7.437,0-.121.158-.378-.171-.371a.291.291,0,0,1,.22-.313C-318.056,1211.438-317.979,1211.488-317.977,1211.618Z" transform="translate(-134.354)" fill="#6b081c"/>
      <path id="Path_1234" data-name="Path 1234" d="M-463.909,1461.021c-.23.1-.375.432-.7.251l.25-.361C-464.271,1461.192-464.057,1460.971-463.909,1461.021Z" transform="translate(-0.648 -228.093)" fill="#b64210"/>
      <path id="Path_1235" data-name="Path 1235" d="M-372.559,1325.121q1.278-2.172,2.555-4.345c.589-1.008,1.167-2.022,1.749-3.033a6,6,0,0,1,.334-.635c.127-.185.264-.242.415,0a5.652,5.652,0,0,0,.5.783c.65,1.082,1.279,2.176,1.931,3.257.769,1.274,1.52,2.559,2.3,3.825.127.207.3.424-.058.586-3.134.018-6.267,0-9.4.006C-372.684,1325.57-372.728,1325.5-372.559,1325.121Z" transform="translate(-84.738 -96.455)" fill="#fefefe"/>
      <path id="Path_1236" data-name="Path 1236" d="M-378.284,1412.413c-.146.41.166.32.366.321q4.416.007,8.831.005l.64,0a.176.176,0,0,1,.2.179l-.028.09c-.126.179-.32.172-.5.173q-4.679.019-9.359,0c-.193,0-.41.023-.529-.2-.055-.095-.152-.095-.243-.1C-378.583,1412.884-378.44,1412.639-378.284,1412.413Z" transform="translate(-79.013 -183.747)" fill="#ba504e"/>
      <path id="Path_1237" data-name="Path 1237" d="M-320.143,1314.375c-.144-.222-.3-.437-.428-.669-.172-.318-.294-.255-.435.02a1.256,1.256,0,0,1-.3.448,1.589,1.589,0,0,1,.351-.738.7.7,0,0,0,.155-.375.391.391,0,0,1,.078-.017,4.718,4.718,0,0,1,.512.948C-320.165,1314.117-319.994,1314.219-320.143,1314.375Z" transform="translate(-131.688 -92.886)" fill="#d6574a"/>
      <path id="Path_1238" data-name="Path 1238" d="M-308.436,1324.5l-.065-.382a11.014,11.014,0,0,1,1.23,1.932q1.248,1.98,2.4,4.018a16.367,16.367,0,0,1,1.175,2.066l-.177.05-.2-.179a10.656,10.656,0,0,0-1.022-1.843c-1.035-1.792-2.112-3.56-3.166-5.341C-308.315,1324.717-308.455,1324.652-308.436,1324.5Z" transform="translate(-143.395 -103.012)" fill="#cb473d"/>
      <path id="Path_1239" data-name="Path 1239" d="M-454.118,1419.118l10.05,0c.114,0,.227.013.341.02q2.136,1.209,4.273,2.418,1.373.781,2.738,1.579c.091.053.22.068.258.206-.125.1-.272.052-.4.052q-11.969.008-23.938.007a1.01,1.01,0,0,1-.622-.086Z" transform="translate(-3.563 -189.878)" fill="#652d8f"/>
    </g>
  </g>
</svg>
