<svg id="Component_42_8" data-name="Component 42 – 8" xmlns="http://www.w3.org/2000/svg" width="60" height="60" viewBox="0 0 60 60">
  <rect id="Rectangle_1613" data-name="Rectangle 1613" width="60" height="60" rx="7" fill="#9acdd1"/>
  <g id="Rectangle_1614" data-name="Rectangle 1614" transform="translate(1.49 1.49)" fill="#fff" stroke="#fff" stroke-width="2">
    <rect width="56.635" height="56.635" rx="7" stroke="none"/>
    <rect x="1" y="1" width="54.635" height="54.635" rx="6" fill="none"/>
  </g>
  <g id="Group_10722" data-name="Group 10722" transform="translate(-3015.922 2355.452)">
    <g id="Group_10722-2" data-name="Group 10722" transform="translate(2996.11 -2723.603)">
      <path id="Path_1189" data-name="Path 1189" d="M66.447,398.1c0,2.541-.051,5.084.022,7.624a2.637,2.637,0,0,1-1.494,2.686q-6.846,3.848-13.611,7.841a2.714,2.714,0,0,1-3.086,0q-6.769-3.983-13.608-7.846a2.7,2.7,0,0,1-1.517-2.686q.081-7.743,0-15.487a2.684,2.684,0,0,1,1.529-2.672c4.635-2.6,9.238-5.261,13.827-7.943a2.292,2.292,0,0,1,2.626-.036q6.865,4.054,13.805,7.981a2.662,2.662,0,0,1,1.524,2.677C66.4,392.858,66.447,395.479,66.447,398.1Z" fill="#9acdd1"/>
      <g id="Group_10726" data-name="Group 10726">
        <path id="Path_1190" data-name="Path 1190" d="M68.995,413.876c-.715-2.144-.239-3.4,1.7-4.376,3.6-1.806,7.062-3.889,10.611-5.8.655-.354,1.57-1.465,2.136-.426a2.1,2.1,0,0,1-1.022,2.987c-3.063,1.647-6.047,3.439-9.068,5.164C71.929,412.236,70.5,413.032,68.995,413.876Z" transform="translate(-18.58 -12.371)" fill="#5f6366"/>
        <path id="Path_1191" data-name="Path 1191" d="M59.98,416.446c2.022.371,2.848,1.272,2.782,3.268-.133,4.037.009,8.082-.025,12.124-.006.674.571,1.9-.606,1.9A1.966,1.966,0,0,1,60,431.685c.016-3.17-.016-6.34-.023-9.51C59.976,420.295,59.98,418.415,59.98,416.446Z" transform="translate(-14.029 -19.487)" fill="#5f6366"/>
        <path id="Path_1192" data-name="Path 1192" d="M53.988,429.307c-2.05-.434-2.869-1.366-2.8-3.337.137-4.041.031-8.09.093-12.134.01-.649-.52-1.87.766-1.785a1.867,1.867,0,0,1,1.932,1.735c.018.4.012.793.012,1.189C53.989,419.707,53.988,424.437,53.988,429.307Z" transform="translate(-9.427 -17.186)" fill="#5f6366"/>
        <path id="Path_1193" data-name="Path 1193" d="M68.436,432.092c-.157-1.04.543-1.514,1.344-1.968,3.929-2.23,7.835-4.5,11.778-6.7.518-.29,1.3-1.185,1.76-.23a1.873,1.873,0,0,1-.521,2.554c-1.421.866-2.878,1.672-4.323,2.5-2.822,1.611-5.675,3.17-8.459,4.845C68.684,433.887,68.343,433.458,68.436,432.092Z" transform="translate(-18.44 -22.789)" fill="#5f6366"/>
        <path id="Path_1194" data-name="Path 1194" d="M68.982,423.858c-.658-2-.121-3.068,1.5-3.933,3.691-1.972,7.272-4.148,10.929-6.185.627-.35,1.48-1.523,2.079-.375a2.013,2.013,0,0,1-.97,2.812c-1.958,1.024-3.847,2.181-5.769,3.274C74.22,420.891,71.686,422.324,68.982,423.858Z" transform="translate(-18.594 -17.618)" fill="#5f6366"/>
        <path id="Path_1195" data-name="Path 1195" d="M55.195,388.5c1.583-1.588,2.925-1.549,4.606-.5,3.354,2.1,6.86,3.956,10.28,5.952.55.321,1.554.542,1.113,1.5a1.763,1.763,0,0,1-1.875.767,2.242,2.242,0,0,1-.922-.193C64.006,393.533,59.626,391.026,55.195,388.5Z" transform="translate(-11.527 -4.217)" fill="#5f6366"/>
        <path id="Path_1196" data-name="Path 1196" d="M38.14,398.383c1.493-1.582,2.761-1.635,4.4-.623,3.886,2.4,7.893,4.6,12.048,6.988-1.224.99-2.087,1.86-3.529,1.026C46.83,403.323,42.573,400.914,38.14,398.383Z" transform="translate(-2.608 -9.359)" fill="#5f6366"/>
        <path id="Path_1197" data-name="Path 1197" d="M46.7,393.446c1.441-1.473,2.772-1.532,4.154-.731,4.043,2.343,8.069,4.717,12.251,7.167-.964.946-1.808,1.914-3.228,1.111C55.547,398.54,51.237,396.047,46.7,393.446Z" transform="translate(-7.085 -6.807)" fill="#5f6366"/>
        <path id="Path_1198" data-name="Path 1198" d="M45.423,416.068c0,2.056.052,4.113-.03,6.166-.025.644.561,1.864-.741,1.8a1.766,1.766,0,0,1-1.807-1.823c.014-1.5,0-3-.006-4.506-.01-2.846-.073-5.693,0-8.538.019-.738-.579-2.122.542-2.127a2.111,2.111,0,0,1,2.066,2.391C45.348,411.637,45.422,413.854,45.423,416.068Z" transform="translate(-4.991 -14.566)" fill="#5f6366"/>
        <path id="Path_1199" data-name="Path 1199" d="M80.415,390.3c-1.079,1.261-2.033,1.484-3.4.667-3.725-2.23-7.543-4.3-11.3-6.489-.448-.261-1.543-.332-1.07-1.175a1.575,1.575,0,0,1,2.191-.8c.834.449,1.65.93,2.471,1.4C73,386.024,76.684,388.148,80.415,390.3Z" transform="translate(-16.413 -1.628)" fill="#5f6366"/>
        <path id="Path_1200" data-name="Path 1200" d="M69.021,442.706c-.372-1.261-.547-2.222.628-2.892,4.538-2.589,9.069-5.191,13.735-7.866a2.215,2.215,0,0,1-.916,3.02C78.039,437.572,73.565,440.1,69.021,442.706Z" transform="translate(-18.612 -27.594)" fill="#5f6366"/>
        <path id="Path_1201" data-name="Path 1201" d="M36.128,411.085c0-2.292-.011-4.584.01-6.876,0-.425-.181-1.042.477-1.144a1.12,1.12,0,0,1,1.221.9,4.752,4.752,0,0,1,.135,1.4c.018,4.268.041,8.536.01,12.8,0,.538.413,1.454-.467,1.567-.951.123-1.366-.651-1.372-1.545-.018-2.371-.006-4.742-.006-7.113Z" transform="translate(-1.55 -12.481)" fill="#5f6366"/>
      </g>
    </g>
  </g>
</svg>
