<svg xmlns="http://www.w3.org/2000/svg" width="82.79" height="24.59" viewBox="0 0 82.79 24.59">
  <g id="Component_49_3" data-name="Component 49 – 3" transform="translate(0.5 0.499)">
    <text id="Settings" transform="translate(82.29 17.795)" fill="#fff" font-size="17" font-family="SegoeUI, Segoe UI"><tspan x="-60.405" y="0">Settings</tspan></text>
    <g id="Group_10491" data-name="Group 10491" transform="translate(-1027.213 -434.935)">
      <path id="Union_1" data-name="Union 1" d="M-4963.119-15697.182a1.866,1.866,0,0,1-1.153-1.758,4.989,4.989,0,0,0-.127-.824.7.7,0,0,0-.291-.365,3.4,3.4,0,0,0-1.212-.43c-.339,0-.625.207-1.243.652l-.011,0a.392.392,0,0,0-.074.059,1.113,1.113,0,0,1-.138.09,1.63,1.63,0,0,1-.9.3,1.486,1.486,0,0,1-1.043-.471c-.476-.449-.957-.936-1.438-1.449a1.374,1.374,0,0,1-.154-1.811l.032-.051.006-.012a2.916,2.916,0,0,1,.3-.4,1.384,1.384,0,0,0,.26-1.824,1.267,1.267,0,0,0-1.106-.848c-.873-.068-1.746-.227-2.084-1.244v-2.725a1.711,1.711,0,0,1,1.618-1.168,4.637,4.637,0,0,0,.974-.191.568.568,0,0,0,.328-.248c.62-1.35.62-1.35-.237-2.561l-.017-.021c-.047-.064-.095-.127-.138-.2a1.457,1.457,0,0,1,.165-1.873c.486-.518,1-1.025,1.523-1.506a1.4,1.4,0,0,1,.942-.393,1.547,1.547,0,0,1,.836.266.9.9,0,0,0,.079.051l.037.027a2.5,2.5,0,0,1,.392.285,1.323,1.323,0,0,0,.968.471,1.862,1.862,0,0,0,.815-.232,1.231,1.231,0,0,0,.852-1.1c.069-.869.229-1.746,1.238-2.092h2.726a1.706,1.706,0,0,1,1.175,1.619,4.733,4.733,0,0,0,.185.971.55.55,0,0,0,.249.338,3.474,3.474,0,0,0,1.3.465c.365,0,.683-.223,1.365-.709l.016-.012a.188.188,0,0,0,.043-.031,1.7,1.7,0,0,1,.952-.344,1.536,1.536,0,0,1,1.037.467c.387.354.757.734,1.111,1.1l.043.043.11.109a1.446,1.446,0,0,1,.154,2.254,1.766,1.766,0,0,0-.308,2.346c.18.3.3.471.672.523.063.01.133.021.2.025l.1.018c.836.105,1.692.211,2.079,1.2v2.725a1.627,1.627,0,0,1-1.529,1.205,7.058,7.058,0,0,0-1.032.172.643.643,0,0,0-.375.27c-.646,1.328-.646,1.328.2,2.545.021.031.042.063.063.09s.063.078.095.127a1.427,1.427,0,0,1-.147,1.867c-.181.189-.366.377-.551.555l-.016.021c-.08.08-.159.158-.238.234-.8.8-1.2,1.125-1.65,1.125-.414,0-.863-.279-1.646-.867a1.12,1.12,0,0,0-.677-.254,1.971,1.971,0,0,0-.566.111,1.463,1.463,0,0,0-1.175,1.545,1.7,1.7,0,0,1-1.238,1.736Zm1.435-1.291c.27,0,.545-.012.81-.031-.381.027-.767.035-1.15.025C-4961.908-15698.477-4961.795-15698.473-4961.685-15698.473Zm1.481-2.08a15.8,15.8,0,0,1-.307,1.693,15.9,15.9,0,0,0,.312-1.7.865.865,0,0,1,.072-.264A.886.886,0,0,0-4960.2-15700.553Zm-8.069-.154c.185-.127.365-.258.539-.381l.011-.01,0,0C-4967.9-15700.971-4968.082-15700.838-4968.272-15700.707Zm13.123-.146c.132,0,.254-.076.407-.25-.222.25-.4.326-.662.16A.449.449,0,0,0-4955.149-15700.854Zm-8.646-.361c-.039-.018-.077-.037-.115-.057C-4963.873-15701.252-4963.835-15701.232-4963.8-15701.215Zm-3.75-.012c.345-.244.674-.475,1.019-.676C-4966.875-15701.7-4967.205-15701.471-4967.546-15701.227Zm3.605-.059-.09-.043Zm-.091-.043a12.994,12.994,0,0,0-1.644-.648A13.142,13.142,0,0,1-4964.031-15701.328Zm4.922-.113.229-.1c.382-.164.773-.328,1.175-.461C-4958.187-15701.844-4958.646-15701.637-4959.109-15701.441Zm5.045-.363c.08-.074.163-.15.248-.225C-4953.9-15701.955-4953.983-15701.881-4954.064-15701.8Zm-2.778-.15a1.244,1.244,0,0,0-.81-.059,1.435,1.435,0,0,1,.328-.037A1.113,1.113,0,0,1-4956.843-15701.955Zm-12.832-.672a.536.536,0,0,0-.064.17.536.536,0,0,1,.064-.17l.067-.1Zm15.933-.139Zm-13.05-6.3a5.1,5.1,0,0,0,5.055,5.18,5.107,5.107,0,0,0,5.117-5.018,5.1,5.1,0,0,0-5.033-5.148h-.02A5.091,5.091,0,0,0-4966.792-15709.07Zm12.226,5.152c-.006-.01-.012-.02-.018-.031C-4954.578-15703.937-4954.572-15703.928-4954.566-15703.918Zm-14.146-.074Zm14.049-.105.047.092-.047-.092Zm-.022-.047s0-.006,0-.008S-4954.686-15704.148-4954.686-15704.145Zm-.02-.053Zm-13.812-.316a.905.905,0,0,0-.052-.289A.905.905,0,0,1-4968.518-15704.514Zm13.763-.322a.268.268,0,0,1,0-.027A.268.268,0,0,0-4954.755-15704.836Zm.01-.055c.008-.037.018-.076.029-.113C-4954.728-15704.967-4954.737-15704.928-4954.745-15704.891Zm-14.134-.6-.046-.105Zm-.1-.225-.02-.045Zm15.722-1.768a.961.961,0,0,0-.23.055.992.992,0,0,1,.235-.055c.286-.033.576-.09.831-.137l.031-.01C-4952.675-15707.568-4952.963-15707.512-4953.255-15707.479Zm-17.235-.01.043,0,.049.008c-.191-.031-.383-.062-.574-.092C-4970.812-15707.543-4970.649-15707.516-4970.49-15707.488Zm19.262-2.309c.042.539.01,1.08.021,1.625,0,.285-.116.381-.4.414-.243.029-.484.074-.728.123.24-.045.484-.09.733-.123.3-.033.408-.145.4-.414,0-.18,0-.365,0-.545l0-.053c0-.318.006-.678-.021-1.027a.458.458,0,0,0-.157-.252A.457.457,0,0,1-4951.229-15709.8Zm-20.955,1.566Zm.008-.107c.019-.281.022-.562.015-.844C-4972.155-15708.879-4972.159-15708.6-4972.176-15708.338Zm20.6-1.834c-.059-.016-.117-.027-.174-.041C-4951.693-15710.2-4951.636-15710.187-4951.578-15710.172Zm-20.124,0c.062-.008.123-.02.185-.031C-4971.579-15710.191-4971.641-15710.182-4971.7-15710.172Zm18.483-.3a13.088,13.088,0,0,1,1.424.252,12.272,12.272,0,0,0-1.424-.252Zm-17.351.123Zm.066,0a.243.243,0,0,1,.037,0A.243.243,0,0,0-4970.5-15710.354Zm.065,0,.038,0Zm.063-.006.045-.006Zm.058-.008a.44.44,0,0,0,.052-.008A.44.44,0,0,1-4970.317-15710.371Zm.057-.008a1.055,1.055,0,0,0,.831-.686A1.065,1.065,0,0,1-4970.261-15710.379Zm16.428-.445,0,0Zm-.809-3.105a.905.905,0,0,0-.058,1.059,18.459,18.459,0,0,1,.714,1.736,1.532,1.532,0,0,0,.142.295,1.438,1.438,0,0,1-.142-.3c-.254-.7-.477-1.232-.709-1.73a.9.9,0,0,1,.059-1.062c.265-.35.513-.711.777-1.09l.01-.018C-4954.113-15714.656-4954.369-15714.287-4954.642-15713.93Zm-14.07,1.08-.006.006c-.072.139-.148.287-.222.438.074-.15.151-.3.228-.443a.849.849,0,0,0-.016-.953A.868.868,0,0,1-4968.712-15712.85Zm-.02-.959c-.013-.02-.025-.037-.039-.057C-4968.757-15713.848-4968.744-15713.828-4968.731-15713.809Zm-.039-.057c-.149-.2-.3-.406-.447-.615C-4969.068-15714.271-4968.922-15714.068-4968.771-15713.865Zm-.661-.916.054.076-.064-.092Zm15.97-.82-.343.5c.115-.162.229-.324.348-.5-.137-.127-.274-.264-.428-.406-.172-.164-.346-.328-.52-.5C-4954.1-15716.205-4953.781-15715.91-4953.462-15715.6Zm-16.515.055.127.176q-.067-.1-.138-.193Zm-.011-.018Zm1.947-1.381c.449.285.895.6,1.323.932a1,1,0,0,0,.46.209.951.951,0,0,1-.455-.215c-.386-.285-.847-.625-1.328-.93a.66.66,0,0,0-.3-.08.436.436,0,0,0-.076.008.375.375,0,0,1,.069-.006A.633.633,0,0,1-4968.04-15716.945Zm10.366,1.012a1.088,1.088,0,0,0,.17.035.772.772,0,0,1-.17-.041c-.274-.088-.55-.186-.823-.295C-4958.226-15716.125-4957.951-15716.025-4957.674-15715.934Zm-11.858-.074-.009.01c.149-.145.3-.289.447-.432C-4969.242-15716.289-4969.389-15716.146-4969.532-15716.008Zm12.722,0Zm.351-.211.022-.014Zm1.014-.752-.11.084c-.269.211-.543.428-.831.621.325-.217.634-.463.941-.7.226-.178.387-.2.6.012a.414.414,0,0,0-.29-.154A.515.515,0,0,0-4955.446-15716.971Zm-3.717.453-.022-.012Zm-1.051-.877a1.2,1.2,0,0,0,.566.645c.112.057.226.111.34.166-.112-.055-.224-.107-.335-.166a1.194,1.194,0,0,1-.571-.645Zm-2.862-1-.011.068c-.053.307-.1.588-.138.867a.892.892,0,0,1-.662.779.885.885,0,0,0,.662-.779c.06-.434.141-.863.209-1.3C-4963.036-15718.633-4963.056-15718.514-4963.076-15718.395Zm-5.4,1.4-.138.123.138-.123Zm13.652.059Zm-5.545-1.17s0,0,0-.006S-4960.372-15718.105-4960.372-15718.1Zm-.133-.932c.042.291.077.584.123.875-.03-.2-.056-.393-.081-.59-.016-.094-.026-.189-.036-.285a.787.787,0,0,0-.038-.152A.8.8,0,0,1-4960.5-15719.035Zm-.465-.424Zm-1.524,0h0Zm.7,14.244a3.742,3.742,0,0,1-3.672-3.885,3.756,3.756,0,0,1,3.825-3.629,3.751,3.751,0,0,1,3.7,3.861,3.753,3.753,0,0,1-3.746,3.652Z" transform="translate(6000.708 16155.706)" fill="#fff" stroke="rgba(0,0,0,0)" stroke-miterlimit="10" stroke-width="1"/>
    </g>
  </g>
</svg>
