<svg xmlns="http://www.w3.org/2000/svg" width="23" height="23" viewBox="0 0 23 23">
  <g id="Group_10716" data-name="Group 10716" transform="translate(-247.41 -420.726)">
    <path id="direct" d="M15.446.634,10.717,14.666a.506.506,0,0,1-.906.093l-3.18-5.3a.472.472,0,0,1,.031-.532L7.8,7.434,6.266,8.541a.512.512,0,0,1-.548.03L.248,5.488a.479.479,0,0,1,.1-.878L14.816.024a.492.492,0,0,1,.629.61Z" transform="translate(254.939 420.726)" fill="#edb3bf"/>
    <g id="Group_10717" data-name="Group 10717" transform="translate(247.41 428.016)">
      <path id="direct-2" data-name="direct" d="M.026,15.044,4.755.349a.5.5,0,0,1,.906-.1l3.18,5.554a.513.513,0,0,1-.031.557L7.668,7.923l1.537-1.16a.493.493,0,0,1,.548-.031l5.469,3.229a.51.51,0,0,1-.1.92L.655,15.684a.5.5,0,0,1-.629-.639Z" transform="translate(0 0)" fill="#edb3bf"/>
    </g>
  </g>
</svg>
