<svg xmlns="http://www.w3.org/2000/svg" width="38" height="38" viewBox="0 0 38 38">
  <g id="Group_10536" data-name="Group 10536" transform="translate(-1730.535 -162.544)">
    <rect id="Rectangle_1613" data-name="Rectangle 1613" width="38" height="38" rx="7" transform="translate(1730.535 162.544)" fill="#fff"/>
    <g id="Path_1303" data-name="Path 1303" transform="translate(1731.535 163.544)" fill="#fff">
      <path d="M 29 35 L 7 35 C 3.691590070724487 35 1 32.30841064453125 1 29 L 1 7 C 1 3.691590070724487 3.691590070724487 1 7 1 L 29 1 C 32.30841064453125 1 35 3.691590070724487 35 7 L 35 29 C 35 29.98255920410156 34.76245880126953 30.89093017578125 34.22980880737305 31.94532012939453 L 34.22795867919922 31.94898986816406 L 34.22613906860352 31.95266914367676 C 33.80955123901367 32.79441070556641 33.08790969848633 33.55820846557617 32.19414901733398 34.10337066650391 C 31.23249053955078 34.68994903564453 30.12796974182129 35 29 35 Z" stroke="none"/>
      <path d="M 7 2 C 4.242990493774414 2 2 4.242990493774414 2 7 L 2 29 C 2 31.75700950622559 4.242990493774414 34 7 34 L 29 34 C 31.1279296875 34 32.73614883422852 32.70878982543945 33.32989120483398 31.50909996032715 L 33.33723831176758 31.49440002441406 C 33.80178833007812 30.57481956481934 34 29.82883071899414 34 29 L 34 7 C 34 4.242990493774414 31.75700950622559 2 29 2 L 7 2 M 7 0 L 29 0 C 32.86598968505859 0 36 3.134010314941406 36 7 L 36 29 C 36 30.12113952636719 35.73643112182617 31.18070983886719 35.12237930297852 32.39622116088867 C 34.12071990966797 34.42015075683594 31.74485969543457 36 29 36 L 7 36 C 3.134010314941406 36 0 32.86598968505859 0 29 L 0 7 C 0 3.134010314941406 3.134010314941406 0 7 0 Z" stroke="none" fill="#4e6c9b"/>
    </g>
    <path id="Path_1279" data-name="Path 1279" d="M-3577.662,3848.915q0,2.643,0,5.287a.29.29,0,0,1-.163.294q-4.605,2.665-9.2,5.341a.229.229,0,0,1-.264,0q-4.611-2.654-9.228-5.3a.26.26,0,0,1-.148-.263q.005-5.306,0-10.612a.274.274,0,0,1,.159-.275q4.588-2.656,9.171-5.322a.293.293,0,0,1,.337,0q4.586,2.641,9.177,5.272a.287.287,0,0,1,.165.292Q-3577.667,3846.272-3577.662,3848.915Zm-14.994.034c0,.986,0,1.971,0,2.957a.336.336,0,0,0,.2.338q2.59,1.479,5.173,2.972a.259.259,0,0,0,.3,0q2.591-1.518,5.188-3.025a.285.285,0,0,0,.16-.281q0-2.986,0-5.972a.3.3,0,0,0-.172-.295q-2.608-1.489-5.21-2.987a.245.245,0,0,0-.283,0q-2.584,1.511-5.175,3.01a.306.306,0,0,0-.179.307C-3592.653,3846.965-3592.656,3847.957-3592.656,3848.949Z" transform="translate(5336.698 -3667.401)"/>
  </g>
</svg>
