<svg xmlns="http://www.w3.org/2000/svg" width="30.291" height="43.9" viewBox="0 0 30.291 43.9">
  <path id="Path_1222" data-name="Path 1222" d="M1009.6,929.377h4.386c0-1.15-.01-2.188,0-3.226a10.41,10.41,0,0,1,9.5-10.3,10.573,10.573,0,0,1,11.56,8,39.883,39.883,0,0,1,.423,5.5h4.294v1.328c0,7.023-.018,14.047.023,21.07a1.493,1.493,0,0,1-1.031,1.6c-4.425,2.032-8.821,4.128-13.25,6.15a2.172,2.172,0,0,1-1.6.055c-4.508-2.052-8.984-4.175-13.475-6.266-.56-.261-.937-.5-.933-1.269.038-7.318.023-14.636.027-21.954C1009.528,929.905,1009.561,929.743,1009.6,929.377Zm6.07,5.559a3.16,3.16,0,0,0-.108.545c-.007,4.246-.031,8.492.029,12.736a1.671,1.671,0,0,0,.867,1.137c2.444,1.21,4.913,2.372,7.41,3.467a2.237,2.237,0,0,0,1.615-.022c2.458-1.081,4.861-2.284,7.315-3.374a1.4,1.4,0,0,0,.95-1.522c-.037-3.951-.015-7.9-.02-11.854,0-.365-.047-.729-.073-1.113Zm14.067-5.607c.7-3.532-.037-5.924-2.2-7.241a5.619,5.619,0,0,0-6.271.335c-1.776,1.36-2.481,4.281-1.662,6.906Z" transform="translate(-1009.501 -915.784)" fill="#4e6c9b"/>
</svg>
