<svg xmlns="http://www.w3.org/2000/svg" xmlns:xlink="http://www.w3.org/1999/xlink" width="38" height="38" viewBox="0 0 38 38">
  <defs>
    <filter id="Rectangle_1820" x="0" y="0" width="38" height="38" filterUnits="userSpaceOnUse">
      <feOffset dy="3" input="SourceAlpha"/>
      <feGaussianBlur stdDeviation="3" result="blur"/>
      <feFlood flood-opacity="0.161"/>
      <feComposite operator="in" in2="blur"/>
      <feComposite in="SourceGraphic"/>
    </filter>
    <filter id="Path_1259" x="4.184" y="4.184" width="29.632" height="29.632" filterUnits="userSpaceOnUse">
      <feOffset dy="3" input="SourceAlpha"/>
      <feGaussianBlur stdDeviation="3" result="blur-2"/>
      <feFlood flood-opacity="0.161"/>
      <feComposite operator="in" in2="blur-2"/>
      <feComposite in="SourceGraphic"/>
    </filter>
  </defs>
  <g transform="matrix(1, 0, 0, 1, 0, 0)" filter="url(#Rectangle_1820)">
    <g id="Rectangle_1820-2" data-name="Rectangle 1820" transform="translate(9 6)" fill="#fff" stroke="#707070" stroke-width="1">
      <rect width="20" height="20" rx="3" stroke="none"/>
      <rect x="0.5" y="0.5" width="19" height="19" rx="2.5" fill="none"/>
    </g>
  </g>
  <g id="Group_10757" data-name="Group 10757" transform="translate(694.874 -2378.382)">
    <g transform="matrix(1, 0, 0, 1, -694.87, 2378.38)" filter="url(#Path_1259)">
      <path id="Path_1259-2" data-name="Path 1259" d="M-676.124,2388.566h.5a1.178,1.178,0,0,0,.219.01,4.561,4.561,0,0,1,1.137.2,5.736,5.736,0,0,1,2.206,1.19,5.784,5.784,0,0,1,1.256,1.526,5.855,5.855,0,0,1,.719,2.132,3.607,3.607,0,0,1,.023.475c0,.013,0,.027.006.038v.5a1.182,1.182,0,0,0-.01.22,4.5,4.5,0,0,1-.2,1.137,5.747,5.747,0,0,1-1.168,2.179,5.789,5.789,0,0,1-1.666,1.349,5.833,5.833,0,0,1-2.019.654,3.544,3.544,0,0,1-.475.022c-.011,0-.023,0-.033.006h-.5a1.137,1.137,0,0,0-.219-.009,4.526,4.526,0,0,1-1.132-.194,5.724,5.724,0,0,1-2.142-1.133,5.786,5.786,0,0,1-1.392-1.7,5.873,5.873,0,0,1-.642-1.935,3.835,3.835,0,0,1-.034-.56c0-.011,0-.023-.006-.032v-.5a1.212,1.212,0,0,0,.009-.219,4.544,4.544,0,0,1,.2-1.137,5.748,5.748,0,0,1,1.19-2.206,5.8,5.8,0,0,1,1.355-1.155,5.8,5.8,0,0,1,1.729-.715,4.03,4.03,0,0,1,.863-.125A1.24,1.24,0,0,0-676.124,2388.566Z" transform="translate(694.87 -2378.38)" fill="#302c2c"/>
    </g>
    <path id="Path_1260" data-name="Path 1260" d="M-343.049,3025.067a4.038,4.038,0,0,1-1.94-.514c-.055-.031-.055-.031,0-.07q1.154-.863,2.307-1.726c.037-.027.054-.026.086.006.192.191.386.379.579.569.062.06.067.062.142.023a2.594,2.594,0,0,0,.97-.86c.038-.055.038-.055.078,0q.406.539.812,1.078a.078.078,0,0,1,0,.117,3.965,3.965,0,0,1-2.385,1.322A3.591,3.591,0,0,1-343.049,3025.067Z" transform="translate(-332.835 -626.685)" fill="#fefefe"/>
    <path id="Path_1261" data-name="Path 1261" d="M-521.247,2726.3c.021.007.028.026.039.041q.869,1.139,1.74,2.278c.035.046.029.067-.008.1-.194.194-.384.393-.578.587a.088.088,0,0,0-.017.119,2.619,2.619,0,0,0,.87.984c.054.037.054.038,0,.075q-.552.413-1.1.828c-.032.024-.048.023-.078,0a3.971,3.971,0,0,1-1.231-1.9,3.951,3.951,0,0,1,.349-3.093A.165.165,0,0,1-521.247,2726.3Z" transform="translate(-158.097 -333.898)" fill="#fefefe"/>
    <path id="Path_1262" data-name="Path 1262" d="M-433.727,2548.98l-.494.355q-.954.685-1.908,1.37c-.034.025-.051.02-.079-.007-.182-.179-.367-.356-.548-.536a.1.1,0,0,0-.134-.021,2.623,2.623,0,0,0-.979.868l-.031.046c-.021,0-.025-.018-.033-.029q-.421-.56-.842-1.12c-.02-.027-.023-.042,0-.069a4.1,4.1,0,0,1,1.444-1.066,3.818,3.818,0,0,1,1.146-.3,4.077,4.077,0,0,1,.463-.034,4.082,4.082,0,0,1,1.612.35q.166.074.324.163Z" transform="translate(-240.14 -158.05)" fill="#fefefe"/>
    <path id="Path_1263" data-name="Path 1263" d="M-46.721,2636.551l-.461-.609q-.646-.853-1.292-1.7c-.029-.039-.028-.058.006-.092.186-.189.368-.381.554-.57a.1.1,0,0,0,.021-.13,2.611,2.611,0,0,0-.862-.983.206.206,0,0,1-.063-.051l.949-.712c.067-.05.135-.1.2-.15.032-.027.049-.021.078,0a3.953,3.953,0,0,1,1.343,2.392,3.873,3.873,0,0,1-.436,2.549C-46.7,2636.513-46.708,2636.53-46.721,2636.551Z" transform="translate(-625.68 -240.206)" fill="#fefefe"/>
  </g>
</svg>
